<svg xmlns="http://www.w3.org/2000/svg" xmlns:xlink="http://www.w3.org/1999/xlink" id="Layer_1" x="0px" y="0px" viewBox="0 0 222 85" style="enable-background:new 0 0 222 85;" xml:space="preserve"><style type="text/css">	.st0{fill:#FFFFFF;}	.st1{fill:#C09849;}	.st2{fill:none;}	.st3{fill:#9AB0DB;}	.st4{fill:#1F1E1D;}	.st5{fill:#005EA4;}	.st6{fill:#FBFBFC;}	.st7{opacity:0.75;}	.st8{opacity:0.99;}	.st9{fill:#FFFFFF;stroke:#FFFFFF;stroke-width:0.25;stroke-miterlimit:10;}</style><g>	<path class="st0" d="M23.2,55.1c0,0,0.8,0.4,0.7,0.9c0,0-0.7-0.1-0.9-0.1C22.8,55.9,23.2,55.1,23.2,55.1"></path>	<g>		<path class="st0" d="M21.1,45.6c0,0,0.4-0.9,0.8-0.8c0,0-0.1,0.8-0.1,1C21.8,45.9,21.1,45.6,21.1,45.6"></path>		<g>			<rect x="13.6" y="45.8" class="st1" width="0.1" height="0.2"></rect>			<path class="st0" d="M19.6,45.8c0,0,0.2-1,0.6-1c0,0,0.1,0.8,0.2,0.9C20.4,45.9,19.6,45.8,19.6,45.8"></path>			<path class="st0" d="M22.1,46.2c0,0,0.9,0.5,0.7,0.9c0,0-0.8-0.1-0.9-0.1C21.7,46.9,22.1,46.2,22.1,46.2"></path>			<path class="st0" d="M22.1,53.7c0,0,0.2-1,0.6-1c0,0,0.1,0.8,0.2,1C23,53.9,22.1,53.7,22.1,53.7"></path>			<path class="st0" d="M22.9,54.2c0,0,0.4-0.9,0.8-0.8c-0.4,4,0-2.8-0.1,1C23.6,54.6,22.9,54.2,22.9,54.2"></path>			<g>				<path class="st2" d="M15.9,48.8c0.1,0,0.1,0,0.3,0.1c0.2,0,0.3,0.1,0.3,0.1l0.3,0c-0.1-0.2-0.2-0.3-0.4-0.3c0,0,0,0,0,0     c0.1-0.1,0.2-0.1,0.2-0.2c0,0,0.1,0,0.1,0v0l-0.1-0.2v0c0,0-0.5,0.4-0.9,0.4l0,0.3C15.7,48.9,15.8,48.9,15.9,48.8z"></path>				<polygon class="st2" points="14,45.7 14,46 14,46.1 14.2,46.1 14.4,46.1 14.4,46 14.4,45.8 14.4,45.7 14.1,45.7     "></polygon>				<path class="st0" d="M19.1,65.3C19.1,65.3,19.1,65.3,19.1,65.3C19.1,65.4,19.1,65.3,19.1,65.3z"></path>				<path class="st0" d="M20.3,59.4C20.3,59.4,20.3,59.4,20.3,59.4C20.3,59.4,20.3,59.5,20.3,59.4L20.3,59.4z"></path>				<path class="st0" d="M15.7,55.4c0,0.1,0,0.3-0.1,0.4c0.1-0.1,0.3-0.2,0.4-0.3c0.4-0.3,0.7-0.7,0.8-1c-0.3-0.1-0.4-0.4-0.4-0.7     c0-0.1,0-0.1,0-0.2c-0.3,0.3-0.7,0.6-0.9,0.7c0,0.1,0,0.1,0.1,0.2C15.7,54.8,15.7,55.1,15.7,55.4z"></path>				<path class="st0" d="M17.8,54.7c0.4,0.5,0.8,0.9,1.1,1.2c0,0,0,0,0,0c0.1,0,0.5-0.2,0.6-0.2l-0.1-0.4l-0.3,0     C19.2,55.1,18.4,54.8,17.8,54.7z"></path>				<path class="st0" d="M23.3,54.9c0.5-0.9-0.2-0.8-0.3-1.1c-0.1-0.3-1.4,0-1.4,0s-0.1,0.1-0.5,0.4c-0.4,0.3,0,0.5,0,0.5l-1.6,1     l0,0.1c-0.1,0.1-0.3,0.2-0.5,0.3c0.1,0.1,0.2,0.2,0.3,0.3c0.1,0.1,0.1,0.1,0.2,0.2h0c0,0,0,0,0,0c0,0,0,0.1,0,0.1     c0,0-0.1,0.1-0.1,0.1c-0.2-0.1-0.2-0.2-0.6-0.5c0,0,0,0,0,0c0,0-0.1-0.1-0.1-0.1c0,0,0,0,0,0l0,0c-0.3-0.3-0.8-0.8-1.3-1.4     l0.1-0.1c-0.1,0-0.3-0.1-0.4-0.1l0.1,0c-0.3,0.8-1.4,1.7-1.8,1.8c0,0-0.1-0.1-0.1-0.1c0-0.1,0-0.1,0.1-0.2     c0.1-0.1,0.1-0.3,0.1-0.6c0-0.3-0.1-0.7-0.1-0.9c0,0,0,0,0,0l-0.2,0.1l0-0.3c0,0,0-0.1,0-0.2c-0.5,0.4-1.5,0.8-2.1,0.9     c0.1,0,0.1,0,0.1,0.1c0,0.2,0.4,2,0,2.4c-0.4,0.4-2.1,2-2.3,2.5c-0.3,0.6-0.1,2.7-0.2,2.9c-0.1,0.2-0.6,0.6-1.1,0.4     c-0.6-0.2-0.7-2.3,0.1-3.3c0.7-1,0.7-1.6,1.3-3.4c0.6-1.8-0.1-3.7-0.6-4.1c-0.5-0.5-0.9-0.7-0.8-1.3c0.1-0.5,1,0,1,0     c0.1-0.8-0.5-1.1-1.4-0.7c-0.8,0.4-0.3,2.2-0.3,2.2c-2.2,0.5-1.4,5-1.3,6.1c0.1,1-1.1,1-1.2,0.8C6,59.5,4.8,59,5.6,59.9     c0.7,0.9,1.1,0.5,1.9,0.1C8.2,59.7,8,57.4,8,57c0-0.4,0.7,0.5,0.8,0.2c0.1-0.3-0.5-1.3-0.6-1.9c-0.1-0.6,0.5,0.4,0.7,0.3     c0.2-0.1-0.3-1-0.2-1.6c0-0.6,0.8,0.4,0.8,0.3c0-0.1-0.1-0.7,0.4-0.5c0.5,0.1,0.4,1.4,0.4,1.4c0.4,1.1-1,3.8-1.6,5.5     c-0.6,1.8-0.7,2.7,0.1,3.5c0.8,0.8,1.8,0,1.8,0s0.2-0.2-0.1,1.2c-0.3,1.4-2.7,1.1-2.2,1.4c0.5,0.3,1,0.5,0.1,0.8     c-0.9,0.3,0.5,0.2,0.4,0.7l0.5,0.5c1.3-0.4,1.3,0.4,1.2,0.6c-0.1,0.2-0.5,1,0.5,0.4c1-0.6,1.4,0.2,1.4,0.2s0.2,0,0.2-0.5     c-0.1-0.5-2-1.3-1.1-1.1c1,0.2,1.4-0.2,1.6-0.5c0.2-0.3-1.4-0.4-1.4-0.4c-0.6,0.2-1.7-1.2-0.4-1.9c1-0.5,1.7-1.2,2-1.6L13.2,64     c0.2-0.1,0.2-0.5,0.2-0.8c0-0.4-0.1-0.7-0.1-0.7l0.3-0.1c0,0,0.1,0.4,0.1,0.8c0,0.2,0,0.5-0.1,0.7c0.5,0,0.5,0.9,0.5,0.9     c0.8-0.2,1.4-1.4,1.4-1.4c0,0,0,0,0.1,0l-0.2-0.1c0.2-0.4,0.3-0.8,0.3-1.2c0-1.4-1.4-2.2-1.4-2.2l0.1-0.1l0,0c0,0,0,0,0,0     c0,0,0.1,0.1,0.2,0.1c0.1,0.1,0.3,0.3,0.5,0.5c0.2,0.3,0.5,0.6,0.6,1l0-0.1c0,0,0.1,0,0.1,0c0.1,0,0.1,0,0.1-0.2     c0-0.4-0.4-1.1-0.5-1.4c0,0,0-0.1,0-0.1c0,0,0-0.1,0-0.1c0,0,0.1,0,0.1,0h0c0,0,0,0,0,0c0,0,0,0,0,0c0,0,0,0,0,0c0,0,0,0,0,0h0     v0c0,0,0,0,0,0c0,0,0,0,0,0l0,0c0,0,0,0.1,0.1,0.1c0,0.1,0.1,0.2,0.2,0.4c0.1,0.3,0.3,0.7,0.3,1c0,0.2-0.1,0.4-0.4,0.4     c0,0,0,0,0,0c0,0.2,0.1,0.4,0.1,0.6c0,0.4-0.1,0.8-0.3,1.3c2.3-0.2,2.1,2.6,2.1,2.6l0.6-0.6c0.7-2.5,0.8-0.5,0.8-0.1     c0-0.4,0.1-0.4,0-0.9c0-0.5,0.4,0,0.6-0.6c0.3-0.6,0.5,0.2,0.5,0.2s0.2,0.7,0.3-0.7c0.1-1.3,0.5-0.2,0.5-0.7     c0-0.5,0.4,0,0.4-0.6c-0.1-0.5-0.8-0.8,0.2-0.8c1,0,0.4-0.7,0.5-1c0.1-0.2-0.4-0.7-0.8-1c-0.4-0.3-0.5,0.2-0.8,0.2c0,0,0,0,0,0     c0.2,0.1,0.5,0.3,0.5,0.6c0,0,0,0.1,0,0.1L20.8,60c0,0,0,0,0,0c0-0.1-0.5-0.4-0.5-0.4h0l0,0c-0.1,0-0.2,0-0.4,0     c-0.3,0.1-0.5,0.3-0.1,0.5c0.7,0.3,0.7,0.8,0.7,1.1c0.1,0.3-1,0.8-1,0.8c-1,1.5-1.5,0.3-1.6,0.2c-0.2-0.1,0.6-2.5,0.7-2.8     c0.1-0.4-0.1-1-0.6-0.4c-0.5,0.7-1.7,0.7-1.7,0.7s-0.9-0.6,0.2-1c0.9-0.3,0.6-1.2,0.5-1.4c0.1,0.2,1.4,0.9,1.7,0.7     c0,0,0.1,0,0.1-0.1l-0.1-0.1c0,0,0.3-0.3,0.4-0.7l0.3,0c-0.1,0.3-0.2,0.6-0.4,0.7c0.3,0,0.5,0.1,0.7-0.1c0,0,0.1-0.1,0.2-0.1     v-0.2c-0.1,0-0.1,0-0.1,0c0,0,0,0,0,0c0,0,0,0,0,0v0h0l0,0c0,0,0,0,0,0c0,0,0,0,0,0c0,0,0,0,0.1-0.1c0,0,0.1-0.1,0.2-0.2     c0.1-0.2,0.2-0.4,0.2-0.6c0-0.1,0-0.1,0-0.2l0.3-0.1c0,0.1,0,0.2,0,0.3c0,0.6-0.4,0.9-0.5,1c0.2,0,0.4,0,0.6-0.3     c0.2-0.5,0.3,0,0.5-0.3c0,0,0,0-0.1,0c0,0,0,0,0-0.1c0,0,0,0,0,0c0,0,0,0,0,0c0,0,0-0.3,0-0.6c0-0.2,0-0.3,0-0.3l0.2-0.1     c0.1,0.1,0.1,0.3,0.1,0.5c0,0.1,0,0.3,0,0.4c0.3-0.5,0.5-0.2,0.6-0.5c0-0.1,0-0.1,0-0.1l-0.2,0l0-0.8l0.3,0l0,0.5     c0.1,0,0.3,0,0.9,0.1C24.2,56,22.8,55.8,23.3,54.9z M14.6,61c0,0.3-0.1,0.7-0.5,1.1l-0.2-0.2c0.3-0.4,0.4-0.7,0.4-1     c0-0.5-0.5-0.6-0.6-0.7l0,0V60C13.8,60,14.5,60.2,14.6,61z M16.9,57.3c0,0-0.1-0.1-0.2-0.2c-0.1-0.1-0.2-0.2-0.3-0.2     c0,0-0.1,0-0.1,0l-0.1-0.2c0.1-0.1,0.2-0.1,0.3-0.1c0.4,0,0.7,0.4,0.7,0.4h0L16.9,57.3z"></path>				<polygon points="19.4,55.2 19.4,55.2 19.4,55.2     "></polygon>				<path d="M19.8,57.5C19.8,57.5,19.8,57.5,19.8,57.5L19.8,57.5L19.8,57.5z"></path>				<polygon points="19.8,57.5 19.8,57.5 19.8,57.5     "></polygon>				<path d="M21.8,46.4C21.7,46.4,21.7,46.4,21.8,46.4C21.7,46.4,21.7,46.4,21.8,46.4z"></path>				<path d="M15.6,63.3C15.6,63.3,15.6,63.3,15.6,63.3C15.6,63.3,15.6,63.3,15.6,63.3L15.6,63.3z"></path>				<path class="st0" d="M13.8,45.2l-0.4,1l1,0.5l0.5-0.9L13.8,45.2z M14.4,45.8V46v0.1h-0.1H14V46v-0.3h0.1h0.2V45.8z"></path>				<path class="st0" d="M20.1,58.5c-0.4,0-0.6,1-0.6,1s0.2,0,0.4,0.1c0.1-0.1,0.3-0.1,0.4-0.1C20.3,59.2,20.1,58.5,20.1,58.5z"></path>				<path class="st0" d="M20.3,59.5L20.3,59.5c0-0.1,0-0.1,0-0.1c-0.1,0-0.3,0.1-0.4,0.1C20.1,59.6,20.2,59.6,20.3,59.5z"></path>				<path class="st0" d="M20.3,59.5C20.3,59.5,20.3,59.5,20.3,59.5L20.3,59.5C20.3,59.5,20.3,59.5,20.3,59.5z"></path>			</g>			<path class="st0" d="M21.5,59.5c0,0,0.4-0.9,0.8-0.8c0,0-0.1,0.8-0.1,1C22.3,59.9,21.5,59.5,21.5,59.5"></path>			<path class="st0" d="M22.2,60.4c0,0,0.9,0.5,0.7,0.9c0,0-0.7-0.1-0.9-0.1C21.8,61.1,22.2,60.4,22.2,60.4"></path>			<path class="st0" d="M12.6,67.7c0,0,1,0.2,1,0.6c0,0-0.7,0.1-0.9,0.2C12.4,68.5,12.6,67.7,12.6,67.7"></path>			<path class="st0" d="M12.3,69.3c0,0,0.9,0.4,0.8,0.8c0,0-0.7-0.1-0.9-0.1C12,70.1,12.3,69.3,12.3,69.3"></path>			<path class="st0" d="M9.5,68.5c0,0-0.4,0.9-0.8,0.7c0,0,0.1-0.8,0.1-1C8.8,68.1,9.5,68.5,9.5,68.5"></path>		</g>	</g>	<g>		<path class="st2" d="M14.8,49.1L15,49c-0.1-0.2-0.4-0.4-0.7-0.5c0,0,0,0-0.1,0l-0.4,0.1C14.1,48.7,14.8,48.9,14.8,49.1z"></path>		<path class="st2" d="M20,53C20,52.9,20,52.9,20,53c0-0.4-0.2-0.7-1-0.8l0,0.3c0.8,0.1,0.7,0.2,0.7,0.5c0,0,0,0.1,0,0.1   c0,0.1,0,0.3,0.1,0.5c0,0,0,0,0,0.1c0,0,0,0-0.2,0c-0.4,0-0.9-0.2-0.9-0.2l0,0c-0.2-0.2-0.4-0.4-0.6-0.5c0,0,0.4,0.1,0.7,0.1   c0.1,0,0.2,0,0.3,0c0.1,0,0.2,0,0.3,0c0.1,0,0.1,0,0.1,0l0-0.3c0,0-0.1,0-0.2,0c-0.1,0-0.2,0-0.4,0c-0.1,0-0.1,0-0.2,0   c-0.3,0-0.7-0.1-0.7-0.1l0,0.3c-0.2-0.1-0.4-0.3-0.6-0.4c-0.7-0.4-0.8-0.7-0.8-0.7l0,0l-0.2-0.2v0c0,0-0.1,0.1-0.1,0.2   c0,0.2,0.2,0.5,0.9,0.9c1.1,0.6,1.7,1.5,1.8,1.8l0.3-0.1c0-0.2-0.2-0.4-0.4-0.7c0.2,0,0.5,0.1,0.7,0.1c0.2,0,0.4,0,0.5-0.3   c0-0.1,0-0.1,0-0.2C20,53.2,20,53.1,20,53z"></path>		<path class="st2" d="M13.8,48.3C13.8,48.3,13.8,48.3,13.8,48.3L13.8,48.3L13.8,48.3C13.8,48.3,13.8,48.3,13.8,48.3   c-0.1,0-0.2,0-0.2,0c0,0,0,0.1,0,0.1c0,0,0,0,0,0l0.3-0.1c0,0,0,0,0,0C13.9,48.3,13.8,48.3,13.8,48.3z"></path>		<path class="st2" d="M16.7,49c-0.1-0.2-0.2-0.3-0.4-0.3c0,0,0,0,0,0c0.1-0.1,0.2-0.1,0.2-0.2c0,0,0.1,0,0.1,0v0l-0.1-0.2v0   c0,0-0.5,0.4-0.9,0.4l0,0.3c0.1,0,0.2,0,0.3-0.1c0.1,0,0.1,0,0.3,0.1c0.2,0,0.3,0.1,0.3,0.1L16.7,49z"></path>		<path class="st2" d="M21.9,46.3C21.9,46.3,21.9,46.2,21.9,46.3C21.9,46.2,21.9,46.2,21.9,46.3C21.9,46.2,21.9,46.2,21.9,46.3   c-0.1-0.1-0.1-0.1-0.1-0.1c0,0-0.1,0-0.1,0c0,0,0,0.1,0,0.1l0,0c0,0.2-0.2,0.8-0.4,1.2l0.2,0.1C21.8,47.2,21.9,46.4,21.9,46.3   C21.9,46.3,21.9,46.3,21.9,46.3z"></path>		<path class="st0" d="M13.6,48.4C13.6,48.4,13.6,48.4,13.6,48.4c0.1-0.1,0.1-0.1,0.1-0.1c0,0,0,0,0,0h0l0,0c0,0,0,0,0,0   c0,0,0.1,0,0.1,0c0,0,0,0,0,0l2.8-0.8c0.2-0.5,0-2.3,0-2.3c-0.5,0-1.3,0.9-1.3,0.9c0.6,0,0.2,1,0.2,1l-1.1-0.5l-0.1,0.3L14,47.6   l-0.6-0.4c-0.6-0.4,0.4-0.3-0.1-0.5c-0.5-0.2-3.5,0.4-2.6,0.3C11.5,46.9,13.4,48.3,13.6,48.4L13.6,48.4   C13.6,48.4,13.6,48.4,13.6,48.4z"></path>		<path class="st0" d="M22.4,50.3c-0.4-0.3,0.2-0.3,0-0.6c-0.2-0.3,0.4-0.2,0.4-0.4c0.1-0.2-0.7,0-0.6-0.5c0.1-0.4-0.4-1-0.4-1   c0.6-1.2,0.1-1.2,0.1-1.2l0-0.7c-0.5-1-1.8,0-1.8,0s-0.1-0.4-0.6-0.2c-0.4,0.1-0.3,0.4-0.3,0.6c0.2,0.1,0.9,0.6,1,0.9l-0.3,0   c0,0-0.4-0.4-0.7-0.6c-0.7,0.9,0.8,1.1,1.5,1.8c0.7,0.8-0.5,2.3-0.9,2.5c-0.3,0.2-1.2,1.1-1.2,1.1c-0.1-0.3-1.6-1-1.6-1   c1.6-0.4,1.1-0.9,1.1-0.9c-0.9,0.1-1.3-0.8-1-0.7c0.3,0.1,1-0.2,1-0.2c0.5-1.1-0.5-1.1-0.7-1.2c-0.1-0.1-0.6-0.3-0.9-0.4l-2.6,0.7   c0,0,0,0,0.1,0c0.3,0.1,0.6,0.3,0.7,0.5l-0.2,0.1c0-0.2-0.7-0.4-1-0.5l-0.2,0.1l0-0.1l-0.1,0.3c0,0,0.2,0,0.1,0.1c0,0,0,0,0.1,0   c0.7,0,0.9,0.7,0.9,0.7h0l-0.3,0.1c0,0-0.2-0.6-0.7-0.6c-0.1,0-0.2,0-0.3,0.1l0-0.1c-0.5,0.3,0,0.7,0,0.7l0.1,0.8   c0,0-1.1-0.3-0.7,1.2c0.3,1,0,1.3-0.1,1.5c0.1,0,0.2,0,0.3,0c0.6,0,1.5-0.2,1.8-1.4l0.2-0.3l0.1,0.1c0,0,0.5,0.6,0.5,1.2   c0,0.1,0,0.3-0.1,0.4l-0.2-0.1c0-0.1,0.1-0.2,0.1-0.3c0-0.3-0.2-0.6-0.3-0.8c-0.4,1.2-1.4,1.5-2,1.5c0,0,0,0,0,0c0,0-0.1,0-0.1,0   l0.1,0c0.1,0.6-0.1,1-0.2,1.3c0.2-0.1,0.7-0.2,1.1-0.4c0.7-0.2,1.3-0.6,1.3-0.8c0-0.1,0-0.2,0-0.2c0,0,0,0,0.1-0.1   c0.1,0,0.1,0.1,0.1,0.1c0,0,0,0,0,0c0,0,0,0,0,0.1c0,0.1,0,0.3,0,0.4c0.3-0.2,0.9-0.6,1.2-1.1c0.1-0.3,0.1-0.4,0.1-0.4l0.3,0.1   c0,0.2-0.1,0.3-0.1,0.5c-0.1,0.2-0.1,0.5-0.1,0.7c0,0.3,0.1,0.4,0.2,0.4c0.7,0.1,2.3,0.4,2.5,1l-0.1-0.7c0,0,0.6-0.2,1.1-0.7   c0.5-0.4,0.9-0.4,1.2-0.4c0.2,0,0.3-0.4-0.2-0.8c-0.5-0.4,1-0.7,1.2-1c0.2-0.4-1-0.1-0.1-0.6C23.4,50.6,22.8,50.6,22.4,50.3z    M16.2,48.9c-0.1,0-0.2,0-0.3-0.1c-0.1,0-0.2,0.1-0.3,0.1l0-0.3c0.5,0,0.9-0.4,0.9-0.4v0l0.1,0.2v0c0,0,0,0-0.1,0   c-0.1,0-0.1,0.1-0.2,0.2c0,0,0,0,0,0c0.2,0.1,0.3,0.1,0.4,0.3l-0.3,0C16.4,49,16.3,48.9,16.2,48.9z M19.6,53.8   c-0.2,0-0.5-0.1-0.7-0.1c0.2,0.3,0.4,0.5,0.4,0.7l-0.3,0.1c-0.1-0.3-0.7-1.1-1.8-1.8c-0.7-0.4-0.9-0.7-0.9-0.9   c0-0.1,0.1-0.2,0.1-0.2v0l0.2,0.2l0,0c0,0,0.1,0.3,0.8,0.7c0.2,0.1,0.4,0.3,0.6,0.4l0-0.3c0,0,0.4,0.1,0.7,0.1c0.1,0,0.2,0,0.2,0   c0.2,0,0.3,0,0.4,0c0.1,0,0.2,0,0.2,0l0,0.3c0,0,0,0-0.1,0c-0.1,0-0.2,0-0.3,0c-0.1,0-0.2,0-0.3,0c-0.3,0-0.7-0.1-0.7-0.1   c0.2,0.2,0.4,0.4,0.6,0.5l0,0c0,0,0.6,0.2,0.9,0.2c0.2,0,0.2,0,0.2,0c0,0,0,0,0-0.1c-0.1-0.2-0.1-0.3-0.1-0.5c0,0,0-0.1,0-0.1   c0-0.2,0.1-0.3-0.7-0.5l0-0.3c0.8,0.1,1,0.4,1,0.7c0,0,0,0.1,0,0.1c0,0.1,0,0.2,0.1,0.4c0,0,0,0.1,0,0.2   C20.1,53.8,19.8,53.8,19.6,53.8z M21.3,47.5c0.2-0.3,0.4-1,0.4-1.2l0,0c0,0,0-0.1,0-0.1c0,0,0.1,0,0.1,0c0,0,0,0,0,0   c0,0,0,0,0.1,0c0,0,0,0,0,0c0,0,0,0,0,0c0,0,0,0,0,0c0,0.1-0.2,0.8-0.5,1.3L21.3,47.5z"></path>		<path class="st0" d="M13.8,48.6C13.8,48.6,13.8,48.6,13.8,48.6c-0.1,0-0.1,0-0.1,0c0,0,0,0,0,0c0,0,0,0,0,0l0,0l0,0l0,0.1   L13.8,48.6z"></path>		<path d="M13.6,48.5L13.6,48.5C13.6,48.5,13.6,48.5,13.6,48.5C13.6,48.5,13.6,48.5,13.6,48.5z"></path>	</g></g><g>	<path class="st0" d="M36.2,55.1c0,0-0.8,0.4-0.7,0.9c0,0,0.7-0.1,0.9-0.1C36.6,55.9,36.2,55.1,36.2,55.1"></path>	<g>		<path class="st0" d="M38.3,45.6c0,0-0.4-0.9-0.8-0.8c0,0,0.1,0.8,0.1,1C37.6,45.9,38.3,45.6,38.3,45.6"></path>		<g>			<rect x="45.7" y="45.8" class="st1" width="0.1" height="0.2"></rect>			<path class="st0" d="M39.8,45.8c0,0-0.2-1-0.6-1c0,0-0.1,0.8-0.2,0.9C39,45.9,39.8,45.8,39.8,45.8"></path>			<path class="st0" d="M37.3,46.2c0,0-0.9,0.5-0.7,0.9c0,0,0.8-0.1,0.9-0.1C37.7,46.9,37.3,46.2,37.3,46.2"></path>			<path class="st0" d="M37.3,53.7c0,0-0.2-1-0.6-1c0,0-0.1,0.8-0.2,1C36.5,53.9,37.3,53.7,37.3,53.7"></path>			<path class="st0" d="M36.5,54.2c0,0-0.4-0.9-0.8-0.8c0.4,4,0-2.8,0.1,1C35.8,54.6,36.5,54.2,36.5,54.2"></path>			<g>				<path class="st2" d="M43.5,48.8c-0.1,0-0.1,0-0.3,0.1C43.1,48.9,43,49,43,49l-0.3,0c0.1-0.2,0.2-0.3,0.4-0.3c0,0,0,0,0,0     c-0.1-0.1-0.2-0.1-0.2-0.2c0,0-0.1,0-0.1,0v0l0.1-0.2v0c0,0,0.5,0.4,0.9,0.4l0,0.3C43.7,48.9,43.6,48.9,43.5,48.8z"></path>				<polygon class="st2" points="45.4,45.7 45.4,46 45.4,46.1 45.2,46.1 45,46.1 45,46 45,45.8 45,45.7 45.3,45.7     "></polygon>				<path class="st0" d="M40.3,65.3C40.3,65.3,40.3,65.3,40.3,65.3C40.3,65.4,40.3,65.3,40.3,65.3z"></path>				<path class="st0" d="M39.1,59.4C39.1,59.4,39.1,59.4,39.1,59.4C39.1,59.4,39.1,59.5,39.1,59.4L39.1,59.4z"></path>				<path class="st0" d="M43.7,55.4c0,0.1,0,0.3,0.1,0.4c-0.1-0.1-0.3-0.2-0.4-0.3c-0.4-0.3-0.7-0.7-0.8-1c0.3-0.1,0.4-0.4,0.4-0.7     c0-0.1,0-0.1,0-0.2c0.3,0.3,0.7,0.6,0.9,0.7c0,0.1,0,0.1-0.1,0.2C43.7,54.8,43.7,55.1,43.7,55.4z"></path>				<path class="st0" d="M41.6,54.7c-0.4,0.5-0.8,0.9-1.1,1.2c0,0,0,0,0,0c-0.1,0-0.5-0.2-0.6-0.2l0.1-0.4l0.3,0     C40.2,55.1,41,54.8,41.6,54.7z"></path>				<path class="st0" d="M36.6,55.8c0.5-0.1,0.8-0.1,0.9-0.1l0-0.5l0.3,0l0,0.8l-0.2,0c0,0,0,0.1,0,0.1c0.1,0.4,0.4,0.1,0.6,0.5     c0-0.1,0-0.2,0-0.4c0-0.2,0-0.3,0.1-0.5l0.2,0.1c0,0-0.1,0.2,0,0.3c0,0.3,0,0.6,0,0.6c0,0,0,0,0,0c0,0,0,0,0,0c0,0,0,0.1,0,0.1     c0,0,0,0-0.1,0c0.2,0.3,0.3-0.2,0.5,0.3c0.1,0.4,0.4,0.3,0.6,0.3c-0.1-0.1-0.5-0.5-0.5-1c0-0.1,0-0.2,0-0.3l0.3,0.1     c0,0.1,0,0.1,0,0.2c0,0.2,0.1,0.5,0.2,0.6c0.1,0.1,0.1,0.2,0.2,0.2c0,0,0,0,0.1,0.1c0,0,0,0,0,0c0,0,0,0,0,0l0,0h0v0     c0,0,0,0,0,0c0,0,0,0,0,0c0,0,0,0-0.1,0v0.2c0.1,0,0.1,0,0.2,0.1c0.2,0.1,0.4,0,0.7,0.1c-0.1-0.1-0.3-0.4-0.4-0.7l0.3,0     c0.1,0.4,0.4,0.7,0.4,0.7l-0.1,0.1c0,0,0.1,0,0.1,0.1c0.3,0.2,1.6-0.5,1.7-0.7c-0.1,0.2-0.4,1,0.5,1.4c1.1,0.4,0.2,1,0.2,1     s-1.2,0-1.7-0.7c-0.5-0.7-0.8,0-0.6,0.4c0.1,0.4,0.9,2.7,0.7,2.8c-0.2,0.1-0.6,1.3-1.6-0.2c0,0-1-0.5-1-0.8     c0.1-0.3,0-0.8,0.7-1.1c0.4-0.2,0.2-0.4-0.1-0.5c-0.2,0-0.3,0-0.4,0l0,0h0c0,0-0.6,0.3-0.5,0.4c0,0,0,0,0,0L38.3,60     c0,0,0-0.1,0-0.1c0-0.3,0.3-0.5,0.5-0.6c0,0,0,0,0,0c-0.3,0-0.4-0.4-0.8-0.2c-0.4,0.3-0.9,0.8-0.8,1c0.1,0.2-0.5,0.9,0.5,1     c1,0,0.3,0.3,0.2,0.8c-0.1,0.5,0.4,0.1,0.4,0.6c0,0.5,0.4-0.7,0.5,0.7c0.1,1.3,0.3,0.7,0.3,0.7s0.2-0.8,0.5-0.2     c0.3,0.6,0.7,0.1,0.6,0.6c0,0.5,0,0.5,0,0.9c0-0.4,0.1-2.4,0.8,0.1l0.6,0.6c0,0-0.2-2.9,2.1-2.6c-0.2-0.5-0.3-0.9-0.3-1.3     c0-0.2,0-0.4,0.1-0.6c0,0,0,0,0,0c-0.3,0-0.4-0.2-0.4-0.4c0-0.3,0.1-0.7,0.3-1c0.1-0.1,0.1-0.3,0.2-0.4c0-0.1,0-0.1,0.1-0.1l0,0     c0,0,0,0,0,0c0,0,0,0,0,0v0h0c0,0,0,0,0,0c0,0,0,0,0,0c0,0,0,0,0,0c0,0,0,0,0,0h0c0,0,0.1,0,0.1,0c0,0,0,0.1,0,0.1     c0,0,0,0.1,0,0.1c-0.1,0.3-0.5,0.9-0.5,1.4c0,0.2,0,0.2,0.1,0.2c0,0,0.1,0,0.1,0l0,0.1c0.1-0.4,0.4-0.8,0.6-1     c0.2-0.2,0.4-0.4,0.5-0.5c0.1,0,0.1-0.1,0.2-0.1c0,0,0,0,0,0l0,0l0.1,0.1c-0.1,0-1.4,0.8-1.4,2.2c0,0.3,0.1,0.7,0.3,1.2     l-0.2,0.1c0,0,0,0,0.1,0c0,0,0.6,1.3,1.4,1.4c0,0,0-0.9,0.5-0.9c-0.1-0.2-0.1-0.4-0.1-0.7c0-0.4,0.1-0.8,0.1-0.8l0.3,0.1     c0,0-0.1,0.3-0.1,0.7c0,0.3,0.1,0.7,0.2,0.8l-0.1,0.1c0.3,0.4,1,1.1,2,1.6c1.4,0.7,0.2,2.1-0.4,1.9c0,0-1.6,0.1-1.4,0.4     c0.2,0.3,0.6,0.7,1.6,0.5c1-0.2-1,0.7-1.1,1.1c-0.1,0.5,0.2,0.5,0.2,0.5s0.4-0.8,1.4-0.2c1,0.6,0.6-0.2,0.5-0.4     c-0.1-0.2-0.1-1,1.2-0.6l0.5-0.5c0-0.5,1.3-0.4,0.4-0.7c-0.9-0.3-0.4-0.6,0.1-0.8c0.5-0.3-1.9,0.1-2.2-1.4     c-0.3-1.4-0.1-1.2-0.1-1.2s1,0.8,1.8,0c0.8-0.8,0.7-1.7,0.1-3.5c-0.6-1.8-2-4.5-1.6-5.5c0,0,0-1.2,0.4-1.4     c0.5-0.1,0.4,0.4,0.4,0.5c0,0.1,0.8-0.9,0.8-0.3c0,0.6-0.4,1.5-0.2,1.6c0.2,0.1,0.8-0.9,0.7-0.3c-0.1,0.6-0.7,1.6-0.6,1.9     c0.1,0.3,0.9-0.6,0.8-0.2c0,0.4-0.3,2.7,0.5,3.1c0.8,0.4,1.1,0.8,1.9-0.1c0.7-0.9-0.4-0.5-0.6-0.2c-0.1,0.2-1.2,0.3-1.2-0.8     c0.1-1,0.9-5.5-1.3-6.1c0,0,0.6-1.8-0.3-2.2c-0.8-0.4-1.5-0.1-1.4,0.7c0,0,0.9-0.6,1,0c0.1,0.6-0.3,0.8-0.8,1.3     c-0.5,0.5-1.2,2.3-0.6,4.1c0.6,1.8,0.6,2.4,1.3,3.4c0.7,1,0.6,3.1,0.1,3.3c-0.6,0.2-1.1-0.2-1.1-0.4c-0.1-0.2,0-2.4-0.2-2.9     c-0.3-0.6-1.9-2.1-2.3-2.5c-0.4-0.4-0.1-2.2,0-2.4c0-0.1,0.1-0.1,0.1-0.1c-0.6-0.2-1.7-0.5-2.1-0.9c0,0.1,0,0.2,0,0.2l0,0.3     l-0.2-0.1c0,0,0,0,0,0c-0.1,0.2-0.1,0.5-0.1,0.9c0,0.2,0,0.5,0.1,0.6c0,0.1,0.1,0.1,0.1,0.2c0,0.1-0.1,0.1-0.1,0.1     c-0.3-0.1-1.5-1-1.8-1.8l0.1,0c-0.1,0-0.2,0-0.4,0.1l0.1,0.1c-0.5,0.6-1,1-1.3,1.4l0,0c0,0,0,0,0,0c-0.1,0-0.1,0.1-0.1,0.1     c0,0,0,0,0,0c-0.4,0.4-0.4,0.5-0.6,0.5c0,0-0.1,0-0.1-0.1c0,0,0-0.1,0-0.1c0,0,0,0,0,0h0c0.1-0.1,0.1-0.1,0.2-0.2     c0.1-0.1,0.2-0.2,0.3-0.3c-0.2-0.1-0.4-0.2-0.5-0.3l0-0.1l-1.6-1c0,0,0.4-0.2,0-0.5c-0.3-0.3-0.5-0.4-0.5-0.4s-1.3-0.3-1.4,0     c-0.1,0.3-0.8,0.2-0.3,1.1C36.6,55.8,35.3,56,36.6,55.8z M45.7,60v0.2l0,0c-0.1,0-0.6,0.2-0.6,0.7c0,0.2,0.1,0.5,0.4,1l-0.2,0.2     c-0.4-0.5-0.5-0.8-0.5-1.1C44.9,60.2,45.6,60,45.7,60z M42.3,57.2L42.3,57.2c0,0,0.3-0.4,0.7-0.4c0.1,0,0.2,0,0.3,0.1l-0.1,0.2     c0,0-0.1,0-0.1,0c-0.1,0-0.2,0.1-0.3,0.2c-0.1,0.1-0.2,0.2-0.2,0.2L42.3,57.2z"></path>				<polygon points="40,55.2 40,55.2 40,55.2     "></polygon>				<path d="M39.6,57.5C39.6,57.5,39.6,57.5,39.6,57.5L39.6,57.5L39.6,57.5z"></path>				<polygon points="39.6,57.5 39.6,57.5 39.6,57.5     "></polygon>				<path d="M37.7,46.4C37.7,46.4,37.7,46.4,37.7,46.4C37.7,46.4,37.7,46.4,37.7,46.4z"></path>				<path d="M43.8,63.3C43.8,63.3,43.8,63.3,43.8,63.3C43.8,63.3,43.8,63.3,43.8,63.3L43.8,63.3z"></path>				<path class="st0" d="M44.5,45.8l0.5,0.9l1-0.5l-0.4-1L44.5,45.8z M45,45.7h0.2h0.1V46v0.1h-0.2H45V46v-0.2V45.7z"></path>				<path class="st0" d="M39.3,58.5c0.4,0,0.6,1,0.6,1s-0.2,0-0.4,0.1c-0.1-0.1-0.3-0.1-0.4-0.1C39.2,59.2,39.3,58.5,39.3,58.5z"></path>				<path class="st0" d="M39.1,59.5L39.1,59.5c0-0.1,0-0.1,0-0.1c0.1,0,0.3,0.1,0.4,0.1C39.3,59.6,39.2,59.6,39.1,59.5z"></path>				<path class="st0" d="M39.1,59.5C39.1,59.5,39.1,59.5,39.1,59.5L39.1,59.5C39.1,59.5,39.1,59.5,39.1,59.5z"></path>			</g>			<path class="st0" d="M37.9,59.5c0,0-0.4-0.9-0.8-0.8c0,0,0.1,0.8,0.1,1C37.2,59.9,37.9,59.5,37.9,59.5"></path>			<path class="st0" d="M37.2,60.4c0,0-0.9,0.5-0.7,0.9c0,0,0.7-0.1,0.9-0.1C37.6,61.1,37.2,60.4,37.2,60.4"></path>			<path class="st0" d="M46.8,67.7c0,0-1,0.2-1,0.6c0,0,0.7,0.1,0.9,0.2C47,68.5,46.8,67.7,46.8,67.7"></path>			<path class="st0" d="M47.1,69.3c0,0-0.9,0.4-0.8,0.8c0,0,0.7-0.1,0.9-0.1C47.5,70.1,47.1,69.3,47.1,69.3"></path>			<path class="st0" d="M49.9,68.5c0,0,0.4,0.9,0.8,0.7c0,0-0.1-0.8-0.1-1C50.6,68.1,49.9,68.5,49.9,68.5"></path>		</g>	</g>	<g>		<path class="st2" d="M44.6,49.1L44.4,49c0.1-0.2,0.4-0.4,0.7-0.5c0,0,0,0,0.1,0l0.4,0.1C45.3,48.7,44.7,48.9,44.6,49.1z"></path>		<path class="st2" d="M39.4,53C39.4,52.9,39.4,52.9,39.4,53c0-0.4,0.2-0.7,1-0.8l0,0.3c-0.8,0.1-0.7,0.2-0.7,0.5c0,0,0,0.1,0,0.1   c0,0.1,0,0.3-0.1,0.5c0,0,0,0,0,0.1c0,0,0,0,0.2,0c0.4,0,0.9-0.2,0.9-0.2l0,0c0.2-0.2,0.4-0.4,0.6-0.5c0,0-0.4,0.1-0.7,0.1   c-0.1,0-0.2,0-0.3,0c-0.1,0-0.2,0-0.3,0c-0.1,0-0.1,0-0.1,0l0-0.3c0,0,0.1,0,0.2,0c0.1,0,0.2,0,0.4,0c0.1,0,0.1,0,0.2,0   c0.3,0,0.7-0.1,0.7-0.1l0,0.3c0.2-0.1,0.4-0.3,0.6-0.4c0.7-0.4,0.8-0.7,0.8-0.7l0,0l0.2-0.2v0c0,0,0.1,0.1,0.1,0.2   c0,0.2-0.2,0.5-0.9,0.9c-1.1,0.6-1.7,1.5-1.8,1.8L40,54.4c0-0.2,0.2-0.4,0.4-0.7c-0.2,0-0.5,0.1-0.7,0.1c-0.2,0-0.4,0-0.5-0.3   c0-0.1,0-0.1,0-0.2C39.4,53.2,39.4,53.1,39.4,53z"></path>		<path class="st2" d="M45.6,48.3C45.6,48.3,45.6,48.3,45.6,48.3L45.6,48.3L45.6,48.3C45.6,48.3,45.7,48.3,45.6,48.3   c0.1,0,0.2,0,0.2,0c0,0,0,0.1,0,0.1c0,0,0,0,0,0l-0.3-0.1c0,0,0,0,0,0C45.5,48.3,45.6,48.3,45.6,48.3z"></path>		<path class="st2" d="M42.7,49c0.1-0.2,0.2-0.3,0.4-0.3c0,0,0,0,0,0c-0.1-0.1-0.2-0.1-0.2-0.2c0,0-0.1,0-0.1,0v0l0.1-0.2v0   c0,0,0.5,0.4,0.9,0.4l0,0.3c-0.1,0-0.2,0-0.3-0.1c-0.1,0-0.1,0-0.3,0.1C43.1,48.9,43,49,43,49L42.7,49z"></path>		<path class="st2" d="M37.5,46.3C37.5,46.3,37.5,46.2,37.5,46.3C37.5,46.2,37.5,46.2,37.5,46.3C37.5,46.2,37.5,46.2,37.5,46.3   c0.1-0.1,0.1-0.1,0.1-0.1c0,0,0.1,0,0.1,0c0,0,0,0.1,0,0.1l0,0c0,0.2,0.2,0.8,0.4,1.2l-0.2,0.1C37.6,47.2,37.5,46.4,37.5,46.3   C37.5,46.3,37.5,46.3,37.5,46.3z"></path>		<path class="st0" d="M45.8,48.4C45.8,48.4,45.8,48.4,45.8,48.4c-0.1-0.1-0.1-0.1-0.1-0.1c0,0,0,0,0,0h0l0,0c0,0,0,0,0,0   c0,0-0.1,0-0.1,0c0,0,0,0,0,0l-2.8-0.8c-0.2-0.5,0-2.3,0-2.3c0.5,0,1.3,0.9,1.3,0.9c-0.6,0-0.2,1-0.2,1l1.1-0.5l0.1,0.3l0.3,0.7   l0.6-0.4c0.6-0.4-0.4-0.3,0.1-0.5c0.5-0.2,3.5,0.4,2.6,0.3C47.9,46.9,46,48.3,45.8,48.4L45.8,48.4C45.8,48.4,45.8,48.4,45.8,48.4z   "></path>		<path class="st0" d="M37,51.1c0.9,0.5-0.3,0.2-0.1,0.6c0.2,0.4,1.7,0.7,1.2,1c-0.5,0.4-0.4,0.7-0.2,0.8c0.2,0,0.7,0,1.2,0.4   c0.5,0.4,1.1,0.7,1.1,0.7L40,55.2c0.2-0.6,1.8-0.8,2.5-1c0.1,0,0.2-0.1,0.2-0.4c0-0.2-0.1-0.5-0.1-0.7c-0.1-0.1-0.1-0.3-0.1-0.5   l0.3-0.1c0,0,0.1,0.2,0.1,0.4c0.3,0.4,0.9,0.8,1.2,1.1c0-0.2,0-0.3,0-0.4c0,0,0,0,0-0.1c0,0,0,0,0,0c0,0,0-0.1,0.1-0.1   c0.2,0,0.1,0.1,0.1,0.1c0,0,0,0.1,0,0.2c0,0.2,0.7,0.6,1.3,0.8c0.4,0.2,0.9,0.3,1.1,0.4c-0.1-0.3-0.3-0.7-0.2-1.3l0.1,0   c0,0-0.1,0-0.1,0c0,0,0,0,0,0c-0.7,0-1.6-0.3-2-1.5c-0.1,0.2-0.3,0.5-0.3,0.8c0,0.1,0,0.2,0.1,0.3l-0.2,0.1   c-0.1-0.1-0.1-0.3-0.1-0.4c0-0.6,0.5-1.2,0.5-1.2l0.1-0.1l0.2,0.3c0.4,1.2,1.2,1.4,1.8,1.4c0.1,0,0.2,0,0.3,0   c-0.2-0.1-0.4-0.5-0.1-1.5c0.4-1.5-0.7-1.2-0.7-1.2l0.1-0.8c0,0,0.5-0.5,0-0.7l0,0.1c-0.1,0-0.2-0.1-0.3-0.1   c-0.4,0-0.7,0.6-0.7,0.6l-0.3-0.1h0c0,0,0.2-0.7,0.9-0.7c0,0,0,0,0.1,0c0-0.1,0.1-0.1,0.1-0.1l-0.1-0.3l0,0.1l-0.2-0.1   c-0.3,0.1-0.9,0.3-1,0.5L44.4,49c0.1-0.2,0.4-0.4,0.7-0.5c0,0,0,0,0.1,0l-2.6-0.7c-0.2,0.1-0.7,0.3-0.9,0.4   c-0.2,0.1-1.2,0.1-0.7,1.2c0,0,0.7,0.3,1,0.2c0.3-0.1-0.1,0.8-1,0.7c0,0-0.5,0.5,1.1,0.9c0,0-1.4,0.7-1.6,1c0,0-0.9-1-1.2-1.1   c-0.3-0.2-1.6-1.7-0.9-2.5c0.7-0.7,2.2-0.9,1.5-1.8c-0.3,0.2-0.7,0.6-0.7,0.6l-0.3,0c0.1-0.3,0.8-0.8,1-0.9   c0.1-0.2,0.1-0.5-0.3-0.6c-0.6-0.2-0.6,0.2-0.6,0.2s-1.3-1-1.8,0l0,0.7c0,0-0.4,0,0.1,1.2c0,0-0.5,0.6-0.4,1   c0.1,0.4-0.7,0.3-0.6,0.5c0.1,0.2,0.6,0.1,0.4,0.4c-0.2,0.3,0.4,0.3,0,0.6C36.6,50.6,36,50.6,37,51.1z M43,49l-0.3,0   c0.1-0.2,0.2-0.3,0.4-0.3c0,0,0,0,0,0c-0.1-0.1-0.2-0.1-0.2-0.2c0,0-0.1,0-0.1,0v0l0.1-0.2v0c0,0,0.5,0.4,0.9,0.4l0,0.3   c-0.1,0-0.2,0-0.3-0.1c-0.1,0-0.1,0-0.3,0.1C43.1,48.9,43,49,43,49z M39.3,53.5c0-0.1,0-0.1,0-0.2c0.1-0.1,0.1-0.2,0.1-0.4   c0,0,0-0.1,0-0.1c0-0.3,0.2-0.6,1-0.7l0,0.3c-0.8,0.1-0.7,0.2-0.7,0.5c0,0,0,0.1,0,0.1c0,0.1,0,0.3-0.1,0.5c0,0,0,0,0,0.1   c0,0,0,0,0.2,0c0.4,0,0.9-0.2,0.9-0.2l0,0c0.2-0.2,0.4-0.4,0.6-0.5c0,0-0.4,0.1-0.7,0.1c-0.1,0-0.2,0-0.3,0c-0.1,0-0.2,0-0.3,0   c-0.1,0-0.1,0-0.1,0l0-0.3c0,0,0.1,0,0.2,0c0.1,0,0.2,0,0.4,0c0.1,0,0.1,0,0.2,0c0.3,0,0.7-0.1,0.7-0.1l0,0.3   c0.2-0.1,0.4-0.3,0.6-0.4c0.7-0.4,0.8-0.7,0.8-0.7l0,0l0.2-0.2v0c0,0,0.1,0.1,0.1,0.2c0,0.2-0.2,0.5-0.9,0.9   c-1.1,0.6-1.7,1.5-1.8,1.8L40,54.4c0-0.2,0.2-0.4,0.4-0.7c-0.2,0-0.5,0.1-0.7,0.1C39.6,53.8,39.3,53.8,39.3,53.5z M37.9,47.6   c-0.3-0.5-0.5-1.2-0.5-1.3c0,0,0,0,0,0c0,0,0,0,0,0c0,0,0,0,0,0c0,0,0,0,0.1,0c0,0,0,0,0,0c0,0,0.1,0,0.1,0c0,0,0,0.1,0,0.1l0,0   c0,0.2,0.2,0.8,0.4,1.2L37.9,47.6z"></path>		<path class="st0" d="M45.6,48.6C45.6,48.6,45.6,48.6,45.6,48.6c0.1,0,0.1,0,0.1,0c0,0,0,0,0,0c0,0,0,0,0,0l0,0l0,0l0,0.1   L45.6,48.6z"></path>		<path d="M45.8,48.5L45.8,48.5C45.8,48.5,45.8,48.5,45.8,48.5C45.8,48.5,45.8,48.5,45.8,48.5z"></path>	</g></g><g>	<g>		<path class="st0" d="M59.5,24V4.6l-59,0c0,0-0.1,46.4,0,48.7c0,0-1.1,9.7,7.7,18c0,0,7.4,6.9,20.4,12H31c0,0,16.1-6.6,20.7-12.2   c0,0,8.5-7.1,7.6-19.1L59.5,24z M49.9,69c-4.2,5.2-19,11.5-19,11.5h-2.2C16.8,75.7,10,69.2,10,69.2C2,61.2,3,52,3,52   c-0.2-2.2,0-45.9,0-45.9l54-0.1v18.2l0,26.7C57.7,62.3,49.9,69,49.9,69"></path>	</g></g><g>	<path class="st3" d="M35.4,35.1c0,0,0.2,0,0.4,0L35.7,34c-0.5,1.2-1.4,0.5-1.4,0.5c-1.4-1.5-5.1,1.2-5.3,1.4  C32.4,35.7,35.4,35.1,35.4,35.1z"></path>	<path class="st3" d="M37.2,35L36,35.1c0.2,0,0.4,0,0.4,0.1c0,0.1,0.7,7.4,0.7,7.4c-0.5-0.2-2.4-0.1-2.4-0.1  c-2.3,0.9-5.2,0.6-5.2,0.6l0.2,0.6c-1.1,0.3-1.1-0.2-1.1-0.2l0.1-0.6c-0.3-0.4-7.4-0.8-7.4-0.8c0.2-0.6,0-7.1,0-7.1l0.1,0l-1-0.1  l-0.6,7.8c1.5,0,8.6,1.2,8.6,1.2l1.3,0.1c0.5-0.3,8.3-0.8,8.3-0.8C37.8,42.9,37.2,35,37.2,35z"></path>	<path class="st3" d="M22,35.1c2,0.7,4.6,0.9,7,0.8c-2.3-2.7-6.6-1.2-7.2-0.9L22,35.1z"></path></g><g>	<path class="st2" d="M35.8,35.1l0-1.1l-0.1,0c-0.2,0.5-0.5,0.7-0.8,0.7c-0.3,0-0.6-0.2-0.6-0.2C34,34.1,33.6,34,33.2,34  c-1.7,0-4.2,1.8-4.2,1.8c-1-1.2-2.5-1.6-3.8-1.6c-1.9,0-3.5,0.7-3.5,0.7l0.1,0l0.1,0c0.4-0.2,1.8-0.7,3.3-0.7  c1.3,0,2.7,0.4,3.8,1.6c0,0,0.1,0,0.1,0c0.4-0.3,2.6-1.8,4.1-1.8c0.4,0,0.8,0.1,1.1,0.4c0,0,0.3,0.2,0.6,0.2c0.3,0,0.6-0.1,0.8-0.6  L35.8,35.1c0.1,0,0.2,0,0.3,0l1.2-0.1c0,0,0.5,7.8,0.8,8c-0.1-0.1-7.8,0.5-8.3,0.8l-1.3-0.1c0,0-7-1.2-8.6-1.2l0.7-7.7l0.9,0.1  c0,0,0,0,0,0l0.3,0l-1.2-0.1l0,0l0,0l-0.6,7.8c1.6,0,8.6,1.2,8.6,1.2l1.3,0.1c0.5-0.3,8.3-0.8,8.3-0.8c-0.2-0.2-0.8-8.1-0.8-8.1  L35.8,35.1z"></path>	<path class="st0" d="M35.4,33.3V4.9H24v28.4H0.7v11.1H24V81h11.4V44.5h22.9V33.3H35.4z M29.7,43.9l-1.3-0.1c0,0-7-1.2-8.6-1.2  l0.6-7.8l0,0l0,0l1.2,0.1l0,0c0,0,1.6-0.7,3.5-0.7c1.3,0,2.8,0.4,3.8,1.6c0,0,2.4-1.8,4.2-1.8c0.5,0,0.9,0.1,1.2,0.5  c0,0,0.3,0.2,0.6,0.2c0.3,0,0.6-0.1,0.8-0.7l0.1,0l0,1.1l1.5-0.1c0,0,0.6,7.9,0.8,8.1C38,43.1,30.2,43.7,29.7,43.9z"></path>	<path class="st0" d="M28.9,35.9c-1-1.2-2.5-1.6-3.8-1.6c-1.5,0-2.9,0.5-3.3,0.7l0.2,0.1C24,35.8,26.6,36,28.9,35.9z"></path>	<path class="st0" d="M35.8,35.1l-0.1-0.9c-0.2,0.4-0.5,0.6-0.8,0.6c-0.3,0-0.6-0.2-0.6-0.2c-0.3-0.3-0.7-0.4-1.1-0.4  c-1.6,0-3.7,1.5-4.1,1.8c3.4-0.1,6.4-0.8,6.4-0.8S35.6,35.1,35.8,35.1z"></path>	<path class="st0" d="M36.4,35.2c0,0.1,0.7,7.4,0.7,7.4c-0.5-0.2-2.4-0.1-2.4-0.1c-2.3,0.9-5.2,0.6-5.2,0.6l0.2,0.6  c-1.1,0.3-1.1-0.2-1.1-0.2l0.1-0.6c-0.3-0.4-7.4-0.8-7.4-0.8c0.2-0.6,0-7,0-7.1l-0.9-0.1l-0.7,7.7c1.6,0,8.6,1.2,8.6,1.2l1.3,0.1  c0.5-0.3,8.2-0.8,8.3-0.8c-0.2-0.3-0.8-8-0.8-8l-1.2,0.1C36.3,35.1,36.4,35.2,36.4,35.2z"></path>	<path class="st4" d="M36.1,35.1c-0.1,0-0.2,0-0.3,0l0,0L36.1,35.1z"></path>	<path class="st4" d="M29,35.9C29,35.9,29,35.9,29,35.9C28.9,35.9,29,35.9,29,35.9C29,35.9,29,35.9,29,35.9z"></path>	<path class="st4" d="M21.3,35l0.3,0c0,0,0.1,0,0.2-0.1l-0.1,0l-0.1,0c0,0,0,0,0,0l0,0L21.3,35C21.3,35,21.3,35,21.3,35z"></path>	<polygon class="st4" points="21.6,34.9 21.6,34.9 21.6,34.9  "></polygon></g><path class="st5" d="M28.6,43.5l0.1-0.6c-0.3-0.4-7.4-0.8-7.4-0.8l0,0c0.1-0.2,0.1-1.5,0.1-2.8l0,0c0-2,0-4.3,0-4.3l0,0h0l0,0l0.4,0 l0.3,0.1c1.7,0.6,3.8,0.8,5.8,0.8l0,0c3.9,0,7.6-0.8,7.6-0.8l0,0c0,0,0.1,0,0.3,0l0,0c0.3,0,0.7,0,0.7,0.1l0,0c0,0,0,0,0,0l0,0l0,0 c0,0.3,0.7,7.3,0.7,7.4l0,0c-0.3-0.1-0.8-0.1-1.4-0.1l0,0c-0.5,0-1,0-1,0l0,0c-1.3,0.5-2.9,0.6-3.9,0.6l0,0c-0.8,0-1.3-0.1-1.3-0.1 l0,0l0.2,0.6c-0.3,0.1-0.5,0.1-0.6,0.1l0,0C28.6,43.8,28.6,43.5,28.6,43.5L28.6,43.5z M21.4,39.3c0,1.4,0,2.6-0.1,2.8l0,0 c0,0,7.1,0.4,7.4,0.8l0,0l-0.1,0.6c0,0,0,0.3,0.5,0.3l0,0c0.1,0,0.3,0,0.6-0.1l0,0L29.5,43c0,0,0.5,0.1,1.3,0.1l0,0 c1.1,0,2.6-0.1,3.9-0.6l0,0c0,0,0.5,0,1,0l0,0c0.5,0,1.1,0,1.4,0.1l0,0c0,0-0.7-7-0.7-7.4l0,0c0,0,0,0,0,0l0,0v0 c0-0.1-0.4-0.1-0.7-0.1l0,0c-0.2,0-0.3,0-0.3,0l0,0c0,0-3.7,0.8-7.6,0.8l0,0c-2,0-4.1-0.2-5.8-0.8l0,0L21.7,35l-0.4,0 C21.4,35.2,21.4,37.4,21.4,39.3L21.4,39.3z"></path><path class="st6" d="M21.9,35c0,0,4.6-1.8,7.1,0.9l0.3,0.1c0,0,3.5-2.9,5.3-1.2c0,0,0.7,0.5,1.1-0.2l0.6,7c0,0-0.2,1-1.5,0.4 c0,0-1.1-0.7-5.1,0.8c0,0,0-6.2-0.3-6.7L29,36c0,0-0.4,5.6,0,6.6c0,0-2.1-3.1-7.4-0.7C21.6,41.9,22,36.5,21.9,35"></path><path class="st5" d="M29.6,42.5c0-0.9,0-6.1-0.3-6.5l0,0L29,36c0,0-0.2,2.5-0.2,4.5l0,0c0,0.9,0,1.8,0.1,2.1l0,0v0l0,0c0,0,0,0,0,0 l0,0c0,0-1.1-1.6-3.6-1.6l0,0c-1,0-2.2,0.2-3.7,0.9l0,0c0,0,0.3-3.6,0.3-5.8l0,0c0-0.5,0-0.9,0-1.2l0,0l0,0l0,0c0,0,1.5-0.6,3.3-0.6 l0,0c1.3,0,2.7,0.3,3.8,1.5l0,0l0.3,0.1c0,0,2.1-1.7,3.9-1.7l0,0c0.5,0,1,0.2,1.4,0.5l0,0c0,0,0.2,0.2,0.5,0.2l0,0 c0.2,0,0.4-0.1,0.6-0.4l0,0l0.6,7c0,0-0.1,0.6-0.8,0.6l0,0c-0.2,0-0.5-0.1-0.8-0.2l0,0c0,0-0.2-0.2-0.9-0.2l0,0 c-0.8,0-2,0.2-4.2,0.9l0,0C29.6,42.6,29.6,42.6,29.6,42.5L29.6,42.5z M29.3,36c0.3,0.5,0.3,5.7,0.3,6.5l0,0c0,0,0,0.1,0,0.1l0,0 c2.1-0.8,3.4-1,4.1-1l0,0c0.7,0,0.9,0.2,0.9,0.2l0,0C35,42,35.3,42,35.5,42l0,0c0.6,0,0.7-0.6,0.7-0.6l0,0l-0.5-7 c-0.2,0.3-0.4,0.4-0.6,0.4l0,0c-0.3,0-0.5-0.2-0.5-0.2v0c-0.4-0.4-0.9-0.5-1.4-0.5l0,0C31.3,34.2,29.2,35.9,29.3,36L29.3,36 l-0.4-0.1c-1-1.1-2.5-1.5-3.8-1.5l0,0c-1.7,0-3.1,0.5-3.3,0.6l0,0c0,0.3,0,0.7,0,1.1l0,0c0,2.1-0.3,5.7-0.3,5.8l0,0 c1.5-0.7,2.7-0.9,3.7-0.9l0,0c2.4,0,3.5,1.4,3.6,1.6l0,0c-0.1-0.4-0.2-1.2-0.2-2.1l0,0c0-2,0.2-4.5,0.2-4.5l0,0L29.3,36L29.3,36z"></path><g class="st7">	<g>		<path class="st3" d="M28.1,36.1c0,0-3.3-2.7-5.5-0.3c0,0-0.7,0.8,5.1,2c0,0-3.9,0.3-4.6,0.6c-0.7,0.3,3.9,0.5,4.7,0.6   c0,0-4,1.4-4.6,1.7c0,0,2.6-1.1,4.1-0.3c0,0-0.1-0.3-0.7-0.5l1.9-0.8c0,0,0.3-0.4-3.6-0.6l3.6-0.5v-0.3c0,0-2.9-0.7-4.4-1.7   c0,0-1.4-1.5,3.6,0.3C27.7,36.3,28.5,36.5,28.1,36.1"></path>		<path class="st0" d="M23.2,40.7C23.2,40.7,23.2,40.7,23.2,40.7L23.2,40.7c0.1,0,1.5-0.6,2.8-0.6l0,0c0.5,0,0.9,0.1,1.3,0.3l0,0   c0,0-0.1-0.3-0.7-0.5l0,0l1.9-0.8l0,0c0-0.1-0.2-0.4-3.6-0.6l0,0l3.6-0.5l0-0.3c0,0-2.9-0.7-4.4-1.7l0,0c0,0-0.2-0.2-0.2-0.4l0,0   c0-0.1,0.1-0.3,0.5-0.3l0,0c0.5,0,1.5,0.2,3.3,0.9l0,0c0,0,0.2,0,0.3,0l0,0c0.1,0,0.2,0,0.2-0.1l0,0c0,0,0-0.1-0.1-0.1l0,0l0,0   l0,0c0.1,0.1,0.1,0.1,0.1,0.2l0,0c0,0.1-0.1,0.1-0.2,0.1l0,0c-0.1,0-0.3,0-0.3,0l0,0c-1.9-0.7-2.8-0.9-3.3-0.9l0,0   c-0.4,0-0.5,0.1-0.5,0.2l0,0c0,0.2,0.2,0.3,0.2,0.3l0,0c1.5,0.9,4.4,1.7,4.4,1.7l0,0l0,0.3l-3.6,0.5c3.3,0.1,3.6,0.5,3.6,0.6l0,0   c0,0,0,0,0,0l0,0l-1.9,0.8c0.7,0.3,0.7,0.5,0.7,0.5l0,0c-0.4-0.2-0.8-0.3-1.3-0.3l0,0C24.7,40.1,23.3,40.7,23.2,40.7L23.2,40.7   C23.2,40.7,23.2,40.7,23.2,40.7L23.2,40.7z M23.3,40.7C23.3,40.7,23.3,40.7,23.3,40.7L23.3,40.7C23.2,40.7,23.2,40.7,23.3,40.7   L23.3,40.7C23.2,40.7,23.3,40.7,23.3,40.7L23.3,40.7z M27.8,39c-0.7-0.1-4.7-0.3-4.8-0.6l0,0c0,0,0-0.1,0.1-0.1l0,0   c0.7-0.3,4.6-0.6,4.6-0.6l0,0c-4.6-1-5.1-1.7-5.1-1.9l0,0c0-0.1,0-0.1,0-0.1l0,0c0.7-0.7,1.4-1,2.2-1l0,0c1.7,0,3.3,1.3,3.3,1.3   l0,0l0,0l0,0c0,0-1.6-1.3-3.3-1.3l0,0c-0.7,0-1.5,0.3-2.2,1l0,0c0,0,0,0,0,0.1l0,0c0,0.2,0.4,0.9,5.1,1.9l0,0c0,0-3.9,0.3-4.6,0.6   l0,0c0,0-0.1,0-0.1,0.1l0,0C23,38.7,27.1,38.9,27.8,39L27.8,39c0,0-3.9,1.3-4.5,1.7l0,0C23.9,40.3,27.7,39,27.8,39L27.8,39z"></path>	</g></g><path class="st0" d="M45,8.2c0,0-0.7,1.4-1.8,2.6c-0.8,0.9-1.5,4.5,2,4.5c3.6,0,2.9-3.6,1.7-4.4C45.8,9.9,45,8.2,45,8.2"></path><path class="st0" d="M46.1,18.4c0,0-0.3-2.7,2.6-2.6c0,0,2.1-0.2,3.3-1.1c0,0,1.3,4.4-2.5,5.3C49.6,20,46.4,20.4,46.1,18.4z"></path><path class="st0" d="M45.1,18.6c0,0,0.3-2.7-2.7-2.6c0,0-2.2-0.2-3.5-1.1c0,0-1,4.7,2.6,5.3C41.5,20.1,44.8,20.5,45.1,18.6z"></path><path class="st0" d="M46.3,23.8c0,0,0-2.9,2.9-2.8c0,0,2.1,0.2,3.3-0.5c0,0,0.9,3.8-2.8,4.8C49.8,25.4,46.6,25.8,46.3,23.8z"></path><path class="st0" d="M46.5,28.6c0,0,0.1-2.4,4.2-2.6c0,0,2.4-0.1,3.1-0.3c0,0-0.5,0.5-1.6,3c-1.1,2.6-4.6,1.4-4.6,1.4 S46.4,29.6,46.5,28.6z"></path><path class="st0" d="M45.1,24c0,0,0-3-2.8-2.9c0,0-2.6,0.3-3.9-0.3c0,0-0.4,3.4,3.3,4.8C41.8,25.6,44.9,26.2,45.1,24z"></path><path class="st0" d="M37.4,26.3c0,0,0.6,0.3,1.7,2.8c1.1,2.5,4.8,1.3,4.8,1.3s1.3-0.5,1.3-1.4c0,0-0.3-2.5-4.2-2.7 C41,26.3,38.1,26.5,37.4,26.3"></path><g>	<polygon class="st0" points="13.8,9.1 13.1,8.4 3,17.7 2.7,19.5  "></polygon>	<g class="st8">		<g>			<polygon class="st0" points="12.4,9.2 13.1,8.4 23.2,17.8 23.5,19.5    "></polygon>		</g>	</g>	<g>		<path class="st0" d="M19.3,26.9H5.6c-0.4,0-0.8-0.4-0.8-0.8v-9.5h1.1v9.2h13.4V26.9z"></path>	</g>	<g>		<path class="st0" d="M18.3,25.1H7c-0.2,0-0.4-0.2-0.4-0.4v-6.8c0-0.2,0.2-0.4,0.4-0.4h11.3V18H7.1v6.6h11.2V25.1z"></path>	</g>	<g>		<path class="st0" d="M16.1,23.9H8.4c-0.2,0-0.4-0.2-0.4-0.4V19c0-0.2,0.2-0.4,0.4-0.4h7.6V19H8.4c0,0,0,0,0,0v4.6c0,0,0,0,0,0h7.6   V23.9z"></path>	</g></g><g>	<path class="st9" d="M70.6,18.6c0,3.4,0.1,4.8,0.5,5.2c0.4,0.4,1,0.5,2.7,0.5c1.2,0,2.2,0,2.8-0.7c0.3-0.4,0.5-0.9,0.6-1.4  c0-0.2,0.1-0.3,0.2-0.3c0.1,0,0.1,0.1,0.1,0.3c0,0.3-0.2,1.6-0.3,2.3c-0.2,0.5-0.2,0.6-1.4,0.6c-1.6,0-2.8,0-3.8-0.1  c-1,0-1.7-0.1-2.3-0.1c-0.1,0-0.5,0-0.9,0c-0.5,0-1,0-1.3,0c-0.3,0-0.4,0-0.4-0.2c0-0.1,0-0.1,0.2-0.1c0.2,0,0.5,0,0.7-0.1  c0.5-0.1,0.6-0.6,0.7-1.3c0.1-1,0.1-2.8,0.1-5v-4c0-3.6,0-4.2,0-4.9c0-0.8-0.2-1.1-1-1.3c-0.2,0-0.6-0.1-0.8-0.1  c-0.1,0-0.2,0-0.2-0.1C66.7,8,66.8,8,67,8c1,0,2.5,0.1,2.6,0.1S71.4,8,72.1,8c0.3,0,0.4,0,0.4,0.2c0,0.1-0.1,0.1-0.2,0.1  c-0.2,0-0.5,0-0.8,0.1c-0.7,0.1-0.8,0.5-0.9,1.3c0,0.7,0,1.4,0,4.9V18.6z"></path>	<path class="st9" d="M88,7.6c5.1,0,9,3.2,9,8.6c0,5.1-3.6,9.3-9.1,9.3c-6.3,0-8.9-4.9-8.9-9C79,12.9,81.7,7.6,88,7.6z M88.5,24.7  c2.1,0,6.3-1.2,6.3-7.8c0-5.5-3.3-8.4-6.9-8.4c-3.8,0-6.7,2.5-6.7,7.5C81.2,21.2,84.4,24.7,88.5,24.7z"></path>	<path class="st9" d="M102.4,22.1c0,1.9,0.3,2.5,0.9,2.6c0.4,0.1,0.9,0.1,1.1,0.1c0.1,0,0.2,0,0.2,0.1c0,0.1-0.1,0.2-0.4,0.2  c-1.3,0-2.2-0.1-2.4-0.1c-0.2,0-1.2,0.1-2.2,0.1c-0.2,0-0.4,0-0.4-0.2c0-0.1,0.1-0.1,0.2-0.1c0.2,0,0.6,0,0.9-0.1  c0.6-0.2,0.7-0.8,0.7-2.9l0-13.1c0-0.9,0.1-1.1,0.3-1.1s0.6,0.5,0.8,0.7c0.3,0.4,3.7,4.1,7.3,7.8c2.3,2.4,4.7,5.2,5.5,6l-0.3-11.6  c0-1.5-0.2-2-0.9-2.2c-0.4-0.1-0.9-0.1-1.1-0.1c-0.2,0-0.2-0.1-0.2-0.2c0-0.1,0.2-0.2,0.5-0.2c1,0,2.1,0.1,2.4,0.1s1-0.1,1.9-0.1  c0.3,0,0.4,0,0.4,0.2c0,0.1-0.1,0.2-0.3,0.2c-0.1,0-0.3,0-0.5,0.1c-0.8,0.2-0.8,0.7-0.8,2l0,13.4c0,1.5,0,1.6-0.2,1.6  c-0.2,0-0.5-0.3-1.7-1.5c-0.3-0.2-3.5-3.6-6-6.2c-2.6-2.9-5.2-5.7-6-6.6L102.4,22.1z"></path>	<path class="st9" d="M123.4,14.6c0-3.6,0-4.2,0-4.9c0-0.8-0.2-1.1-1-1.3c-0.2,0-0.6-0.1-0.8-0.1c-0.1,0-0.2,0-0.2-0.1  c0-0.1,0.1-0.2,0.4-0.2c1,0,2.5,0.1,2.6,0.1c0.3,0,1.7-0.1,3.1-0.1c2.3,0,6.4-0.2,9.2,2.6c1.1,1.2,2.2,3.1,2.2,5.8  c0,2.9-1.2,5.1-2.5,6.4c-1,1-3,2.6-6.9,2.6c-1,0-2.2-0.1-3.2-0.1c-1-0.1-1.8-0.1-1.9-0.1c0,0-0.4,0-0.9,0c-0.5,0-1,0-1.3,0  c-0.3,0-0.4,0-0.4-0.2c0-0.1,0-0.1,0.2-0.1c0.2,0,0.5,0,0.7-0.1c0.5-0.1,0.6-0.6,0.7-1.3c0.1-1,0.1-2.8,0.1-5V14.6z M125.4,17  c0,2.4,0,4.5,0,5c0,0.6,0.1,1.5,0.3,1.7c0.3,0.4,1.2,0.9,3.9,0.9c2.1,0,4.1-0.8,5.4-2.1c1.2-1.2,1.8-3.4,1.8-5.5  c0-2.9-1.3-4.8-2.2-5.8c-2.1-2.3-4.7-2.6-7.5-2.6c-0.5,0-1.3,0.1-1.5,0.2c-0.2,0.1-0.3,0.2-0.3,0.5c0,0.8,0,3.1,0,4.9V17z"></path>	<path class="st9" d="M150.8,7.6c5.1,0,9,3.2,9,8.6c0,5.1-3.6,9.3-9.1,9.3c-6.3,0-8.9-4.9-8.9-9C141.8,12.9,144.5,7.6,150.8,7.6z   M151.3,24.7c2.1,0,6.3-1.2,6.3-7.8c0-5.5-3.3-8.4-6.9-8.4c-3.8,0-6.7,2.5-6.7,7.5C143.9,21.2,147.1,24.7,151.3,24.7z"></path>	<path class="st9" d="M165.2,22.1c0,1.9,0.3,2.5,0.9,2.6c0.4,0.1,0.9,0.1,1.1,0.1c0.1,0,0.2,0,0.2,0.1c0,0.1-0.1,0.2-0.4,0.2  c-1.3,0-2.2-0.1-2.4-0.1c-0.2,0-1.2,0.1-2.2,0.1c-0.2,0-0.4,0-0.4-0.2c0-0.1,0.1-0.1,0.2-0.1c0.2,0,0.6,0,0.9-0.1  c0.6-0.2,0.7-0.8,0.7-2.9l0-13.1c0-0.9,0.1-1.1,0.3-1.1s0.6,0.5,0.8,0.7c0.3,0.4,3.7,4.1,7.3,7.8c2.3,2.4,4.7,5.2,5.5,6l-0.3-11.6  c0-1.5-0.2-2-0.9-2.2c-0.4-0.1-0.9-0.1-1.1-0.1c-0.2,0-0.2-0.1-0.2-0.2c0-0.1,0.2-0.2,0.5-0.2c1,0,2.1,0.1,2.4,0.1S179,8,180,8  c0.3,0,0.4,0,0.4,0.2c0,0.1-0.1,0.2-0.3,0.2c-0.1,0-0.3,0-0.5,0.1c-0.8,0.2-0.8,0.7-0.8,2l0,13.4c0,1.5,0,1.6-0.2,1.6  c-0.2,0-0.5-0.3-1.7-1.5c-0.3-0.2-3.5-3.6-6-6.2c-2.6-2.9-5.2-5.7-6-6.6L165.2,22.1z"></path>	<path class="st9" d="M68.8,45.6c-2.2-2-2.8-4.6-2.8-6.8c0-1.5,0.5-4.2,2.6-6.2c1.4-1.4,3.4-2.4,7-2.4c0.9,0,2.2,0.1,3.3,0.3  c0.9,0.2,1.6,0.3,2.3,0.3c0.3,0,0.3,0.1,0.3,0.3c0,0.2-0.1,0.5-0.1,1.3c0,0.8,0,2-0.1,2.4c0,0.3-0.1,0.5-0.2,0.5  c-0.2,0-0.2-0.2-0.2-0.5c0-0.9-0.4-1.8-1-2.3c-0.8-0.7-2.6-1.3-4.6-1.3c-3,0-4.5,0.9-5.3,1.7c-1.7,1.6-2.1,3.6-2.1,6  c0,4.4,3.4,8.4,8.2,8.4c1.7,0,3.1-0.2,4-1.1c0.5-0.5,0.8-1.5,0.8-1.9c0-0.3,0.1-0.3,0.2-0.3c0.1,0,0.2,0.2,0.2,0.3  c0,0.2-0.3,2.1-0.5,2.9c-0.1,0.4-0.2,0.5-0.6,0.7c-0.9,0.4-2.6,0.5-4.1,0.5C72.9,48.1,70.6,47.2,68.8,45.6z"></path>	<path class="st9" d="M100.8,41.1c0,2.2,0,4,0.1,5c0.1,0.7,0.2,1.2,0.9,1.3c0.3,0,0.8,0.1,1,0.1c0.1,0,0.2,0.1,0.2,0.1  c0,0.1-0.1,0.2-0.4,0.2c-1.3,0-2.7-0.1-2.8-0.1s-1.6,0.1-2.2,0.1c-0.3,0-0.4,0-0.4-0.2c0-0.1,0-0.1,0.2-0.1c0.2,0,0.5,0,0.7-0.1  c0.5-0.1,0.6-0.6,0.7-1.3c0.1-1,0.1-2.8,0.1-5v-2.4c0-0.1-0.1-0.1-0.1-0.1h-9.7c-0.1,0-0.1,0-0.1,0.1v2.4c0,2.2,0,4,0.1,5  c0.1,0.7,0.2,1.2,0.9,1.3c0.3,0,0.8,0.1,1,0.1c0.1,0,0.2,0.1,0.2,0.1c0,0.1-0.1,0.2-0.4,0.2c-1.3,0-2.7-0.1-2.8-0.1  s-1.6,0.1-2.2,0.1c-0.3,0-0.4,0-0.4-0.2c0-0.1,0-0.1,0.2-0.1c0.2,0,0.5,0,0.7-0.1c0.5-0.1,0.6-0.6,0.7-1.3c0.1-1,0.1-2.8,0.1-5v-4  c0-3.6,0-4.2,0-4.9c0-0.8-0.2-1.1-1-1.3c-0.2,0-0.6-0.1-0.8-0.1c-0.1,0-0.2,0-0.2-0.1c0-0.1,0.1-0.2,0.4-0.2c1,0,2.5,0.1,2.6,0.1  s1.6-0.1,2.2-0.1c0.3,0,0.4,0,0.4,0.2c0,0.1-0.1,0.1-0.2,0.1c-0.2,0-0.3,0-0.6,0.1C89.2,31,89,31.4,89,32.2c0,0.7,0,1.4,0,4.9v0.5  c0,0.1,0.1,0.1,0.1,0.1h9.7c0.1,0,0.1,0,0.1-0.1v-0.5c0-3.6,0-4.2,0-4.9c0-0.8-0.2-1.1-1-1.3c-0.2,0-0.6-0.1-0.8-0.1  c-0.1,0-0.2,0-0.2-0.1c0-0.1,0.1-0.2,0.4-0.2c1,0,2.5,0.1,2.6,0.1s1.6-0.1,2.2-0.1c0.3,0,0.4,0,0.4,0.2c0,0.1-0.1,0.1-0.2,0.1  c-0.2,0-0.3,0-0.6,0.1c-0.6,0.1-0.8,0.5-0.8,1.3c0,0.7,0,1.4,0,4.9V41.1z"></path>	<path class="st9" d="M107.6,37.1c0-3.6,0-4.2,0-4.9c0-0.8-0.2-1.1-1-1.3c-0.2,0-0.6-0.1-0.8-0.1c-0.1,0-0.2,0-0.2-0.1  c0-0.1,0.1-0.2,0.4-0.2c1,0,2.4,0.1,2.6,0.1s1.6-0.1,2.3-0.1c0.3,0,0.4,0,0.4,0.2c0,0.1-0.1,0.1-0.2,0.1c-0.2,0-0.3,0-0.6,0.1  c-0.6,0.1-0.8,0.5-0.8,1.3c0,0.7,0,1.4,0,4.9v3.2c0,3.3,0.7,4.7,1.7,5.6c1.1,1.1,2.1,1.3,3.4,1.3c1.4,0,2.8-0.7,3.6-1.6  c1-1.3,1.3-3.2,1.3-5.6v-2.9c0-3.6,0-4.2,0-4.9c0-0.8-0.2-1.1-1-1.3c-0.2,0-0.6-0.1-0.8-0.1c-0.1,0-0.2,0-0.2-0.1  c0-0.1,0.1-0.2,0.4-0.2c1,0,2.3,0.1,2.4,0.1c0.2,0,1.2-0.1,1.9-0.1c0.3,0,0.4,0,0.4,0.2c0,0.1-0.1,0.1-0.2,0.1  c-0.2,0-0.3,0-0.6,0.1c-0.6,0.1-0.8,0.5-0.8,1.3c0,0.7,0,1.4,0,4.9v2.4c0,2.5-0.3,5.2-2.1,6.8c-1.6,1.5-3.4,1.7-4.7,1.7  c-0.8,0-3.1-0.1-4.7-1.6c-1.1-1.1-2-2.7-2-6V37.1z"></path>	<path class="st9" d="M127.9,37.1c0-3.6,0-4.2,0-4.9c0-0.8-0.2-1.1-1-1.3c-0.2,0-0.6-0.1-0.8-0.1c-0.1,0-0.2,0-0.2-0.1  c0-0.1,0.1-0.2,0.4-0.2c1,0,2.5,0.1,2.6,0.1c0.3,0,2-0.1,2.7-0.1c1.4,0,3,0.1,4.2,1c0.6,0.4,1.6,1.5,1.6,3.1c0,1.7-0.7,3.4-2.8,5.3  c1.9,2.4,3.4,4.4,4.7,5.8c1.2,1.3,2.2,1.6,2.8,1.6c0.4,0.1,0.8,0.1,0.9,0.1c0.1,0,0.2,0.1,0.2,0.1c0,0.1-0.1,0.2-0.5,0.2H141  c-1.3,0-1.8-0.1-2.4-0.4c-1-0.5-1.8-1.6-3.1-3.4c-1-1.3-2-2.8-2.5-3.4c-0.1-0.1-0.2-0.1-0.3-0.1l-2.8,0c-0.1,0-0.2,0.1-0.2,0.2v0.5  c0,2.2,0,4,0.1,5c0.1,0.7,0.2,1.2,0.9,1.3c0.3,0,0.8,0.1,1,0.1c0.1,0,0.2,0.1,0.2,0.1c0,0.1-0.1,0.2-0.4,0.2  c-1.3,0-2.7-0.1-2.8-0.1c0,0-1.5,0.1-2.1,0.1c-0.3,0-0.4,0-0.4-0.2c0-0.1,0-0.1,0.2-0.1c0.2,0,0.5,0,0.7-0.1  c0.5-0.1,0.6-0.6,0.7-1.3c0.1-1,0.1-2.8,0.1-5V37.1z M129.7,39.1c0,0.1,0,0.2,0.2,0.3c0.3,0.2,1.4,0.4,2.4,0.4  c0.5,0,1.2-0.1,1.7-0.4c0.8-0.5,1.4-1.8,1.4-3.5c0-2.9-1.5-4.6-3.9-4.6c-0.7,0-1.3,0.1-1.5,0.1c-0.1,0-0.2,0.1-0.2,0.3V39.1z"></path>	<path class="st9" d="M145.6,45.6c-2.2-2-2.8-4.6-2.8-6.8c0-1.5,0.5-4.2,2.6-6.2c1.4-1.4,3.4-2.4,7-2.4c0.9,0,2.2,0.1,3.3,0.3  c0.9,0.2,1.6,0.3,2.3,0.3c0.3,0,0.3,0.1,0.3,0.3c0,0.2-0.1,0.5-0.1,1.3c0,0.8,0,2-0.1,2.4c0,0.3-0.1,0.5-0.2,0.5  c-0.2,0-0.2-0.2-0.2-0.5c0-0.9-0.4-1.8-1-2.3c-0.8-0.7-2.6-1.3-4.6-1.3c-3,0-4.5,0.9-5.3,1.7c-1.7,1.6-2.1,3.6-2.1,6  c0,4.4,3.4,8.4,8.2,8.4c1.7,0,3.1-0.2,4-1.1c0.5-0.5,0.8-1.5,0.8-1.9c0-0.3,0.1-0.3,0.2-0.3c0.1,0,0.2,0.2,0.2,0.3  c0,0.2-0.3,2.1-0.5,2.9c-0.1,0.4-0.2,0.5-0.6,0.7c-0.9,0.4-2.6,0.5-4.1,0.5C149.7,48.1,147.4,47.2,145.6,45.6z"></path>	<path class="st9" d="M177.6,41.1c0,2.2,0,4,0.1,5c0.1,0.7,0.2,1.2,0.9,1.3c0.3,0,0.8,0.1,1,0.1c0.1,0,0.2,0.1,0.2,0.1  c0,0.1-0.1,0.2-0.4,0.2c-1.3,0-2.7-0.1-2.8-0.1c-0.1,0-1.6,0.1-2.2,0.1c-0.3,0-0.4,0-0.4-0.2c0-0.1,0-0.1,0.2-0.1  c0.2,0,0.5,0,0.7-0.1c0.5-0.1,0.6-0.6,0.7-1.3c0.1-1,0.1-2.8,0.1-5v-2.4c0-0.1-0.1-0.1-0.1-0.1h-9.7c-0.1,0-0.1,0-0.1,0.1v2.4  c0,2.2,0,4,0.1,5c0.1,0.7,0.2,1.2,0.9,1.3c0.3,0,0.8,0.1,1,0.1c0.1,0,0.2,0.1,0.2,0.1c0,0.1-0.1,0.2-0.4,0.2  c-1.3,0-2.7-0.1-2.8-0.1c-0.1,0-1.6,0.1-2.2,0.1c-0.3,0-0.4,0-0.4-0.2c0-0.1,0-0.1,0.2-0.1c0.2,0,0.5,0,0.7-0.1  c0.5-0.1,0.6-0.6,0.7-1.3c0.1-1,0.1-2.8,0.1-5v-4c0-3.6,0-4.2,0-4.9c0-0.8-0.2-1.1-1-1.3c-0.2,0-0.6-0.1-0.8-0.1  c-0.1,0-0.2,0-0.2-0.1c0-0.1,0.1-0.2,0.4-0.2c1,0,2.5,0.1,2.6,0.1c0.1,0,1.6-0.1,2.2-0.1c0.3,0,0.4,0,0.4,0.2  c0,0.1-0.1,0.1-0.2,0.1c-0.2,0-0.3,0-0.6,0.1c-0.6,0.1-0.8,0.5-0.8,1.3c0,0.7,0,1.4,0,4.9v0.5c0,0.1,0.1,0.1,0.1,0.1h9.7  c0.1,0,0.1,0,0.1-0.1v-0.5c0-3.6,0-4.2,0-4.9c0-0.8-0.2-1.1-1-1.3c-0.2,0-0.6-0.1-0.8-0.1c-0.1,0-0.2,0-0.2-0.1  c0-0.1,0.1-0.2,0.4-0.2c1,0,2.5,0.1,2.6,0.1c0.1,0,1.6-0.1,2.2-0.1c0.3,0,0.4,0,0.4,0.2c0,0.1-0.1,0.1-0.2,0.1  c-0.2,0-0.3,0-0.6,0.1c-0.6,0.1-0.8,0.5-0.8,1.3c0,0.7,0,1.4,0,4.9V41.1z"></path>	<path class="st9" d="M187.7,41.1c0,2.2,0,4,0.1,5c0.1,0.7,0.2,1.2,0.9,1.3c0.3,0,0.8,0.1,1,0.1c0.1,0,0.2,0.1,0.2,0.1  c0,0.1-0.1,0.2-0.4,0.2c-1.3,0-2.7-0.1-2.8-0.1c-0.1,0-1.6,0.1-2.2,0.1c-0.3,0-0.4,0-0.4-0.2c0-0.1,0-0.1,0.2-0.1  c0.2,0,0.5,0,0.7-0.1c0.5-0.1,0.6-0.6,0.7-1.3c0.1-1,0.1-2.8,0.1-5v-4c0-3.6,0-4.2,0-4.9c0-0.8-0.3-1.2-0.8-1.3  c-0.3-0.1-0.5-0.1-0.7-0.1c-0.1,0-0.2,0-0.2-0.1c0-0.1,0.1-0.2,0.4-0.2c0.8,0,2.2,0.1,2.3,0.1c0.1,0,1.6-0.1,2.2-0.1  c0.3,0,0.4,0,0.4,0.2c0,0.1-0.1,0.1-0.2,0.1c-0.2,0-0.3,0-0.6,0.1c-0.6,0.1-0.8,0.5-0.8,1.3c0,0.7,0,1.4,0,4.9V41.1z"></path>	<path class="st9" d="M197.7,41.2c0,3.4,0.1,4.8,0.5,5.2c0.4,0.4,1,0.5,2.7,0.5c1.2,0,2.2,0,2.8-0.7c0.3-0.4,0.5-0.9,0.6-1.4  c0-0.2,0.1-0.3,0.2-0.3c0.1,0,0.1,0.1,0.1,0.3c0,0.3-0.2,1.6-0.3,2.3c-0.2,0.5-0.2,0.6-1.4,0.6c-1.6,0-2.8,0-3.8-0.1  c-1,0-1.7-0.1-2.3-0.1c-0.1,0-0.5,0-0.9,0c-0.5,0-1,0-1.3,0c-0.3,0-0.4,0-0.4-0.2c0-0.1,0-0.1,0.2-0.1c0.2,0,0.5,0,0.7-0.1  c0.5-0.1,0.6-0.6,0.7-1.3c0.1-1,0.1-2.8,0.1-5v-4c0-3.6,0-4.2,0-4.9c0-0.8-0.2-1.1-1-1.3c-0.2,0-0.6-0.1-0.8-0.1  c-0.1,0-0.2,0-0.2-0.1c0-0.1,0.1-0.2,0.4-0.2c1,0,2.5,0.1,2.6,0.1c0.1,0,1.8-0.1,2.5-0.1c0.3,0,0.4,0,0.4,0.2  c0,0.1-0.1,0.1-0.2,0.1c-0.2,0-0.5,0-0.8,0.1c-0.7,0.1-0.8,0.5-0.9,1.3c0,0.7,0,1.4,0,4.9V41.2z"></path>	<path class="st9" d="M211.2,41.2c0,3.4,0.1,4.8,0.5,5.2c0.4,0.4,1,0.5,2.7,0.5c1.2,0,2.2,0,2.8-0.7c0.3-0.4,0.5-0.9,0.6-1.4  c0-0.2,0.1-0.3,0.2-0.3c0.1,0,0.1,0.1,0.1,0.3c0,0.3-0.2,1.6-0.3,2.3c-0.2,0.5-0.2,0.6-1.4,0.6c-1.6,0-2.8,0-3.8-0.1  c-1,0-1.7-0.1-2.3-0.1c-0.1,0-0.5,0-0.9,0c-0.5,0-1,0-1.3,0c-0.3,0-0.4,0-0.4-0.2c0-0.1,0-0.1,0.2-0.1c0.2,0,0.5,0,0.7-0.1  c0.5-0.1,0.6-0.6,0.7-1.3c0.1-1,0.1-2.8,0.1-5v-4c0-3.6,0-4.2,0-4.9c0-0.8-0.2-1.1-1-1.3c-0.2,0-0.6-0.1-0.8-0.1  c-0.1,0-0.2,0-0.2-0.1c0-0.1,0.1-0.2,0.4-0.2c1,0,2.5,0.1,2.6,0.1c0.1,0,1.8-0.1,2.5-0.1c0.3,0,0.4,0,0.4,0.2  c0,0.1-0.1,0.1-0.2,0.1c-0.2,0-0.5,0-0.8,0.1c-0.7,0.1-0.8,0.5-0.9,1.3c0,0.7,0,1.4,0,4.9V41.2z"></path>	<path class="st9" d="M68.8,68.2c-2.2-2-2.8-4.6-2.8-6.8c0-1.5,0.5-4.2,2.6-6.2c1.4-1.4,3.4-2.4,7-2.4c0.9,0,2.2,0.1,3.3,0.3  c0.9,0.2,1.6,0.3,2.3,0.3c0.3,0,0.3,0.1,0.3,0.3c0,0.2-0.1,0.5-0.1,1.3c0,0.8,0,2-0.1,2.4c0,0.3-0.1,0.5-0.2,0.5  c-0.2,0-0.2-0.2-0.2-0.5c0-0.9-0.4-1.8-1-2.3c-0.8-0.7-2.6-1.3-4.6-1.3c-3,0-4.5,0.9-5.3,1.7c-1.7,1.6-2.1,3.6-2.1,6  c0,4.4,3.4,8.4,8.2,8.4c1.7,0,3.1-0.2,4-1.1c0.5-0.5,0.8-1.5,0.8-1.9c0-0.3,0.1-0.3,0.2-0.3c0.1,0,0.2,0.2,0.2,0.3  c0,0.2-0.3,2.1-0.5,2.9c-0.1,0.4-0.2,0.5-0.6,0.7c-0.9,0.4-2.6,0.5-4.1,0.5C72.9,70.6,70.6,69.8,68.8,68.2z"></path>	<path class="st9" d="M93.2,52.7c5.1,0,9,3.2,9,8.6c0,5.1-3.6,9.3-9.1,9.3c-6.3,0-8.9-4.9-8.9-9C84.2,58,86.9,52.7,93.2,52.7z   M93.7,69.8c2.1,0,6.3-1.2,6.3-7.8c0-5.5-3.3-8.4-6.9-8.4c-3.8,0-6.7,2.5-6.7,7.5C86.4,66.3,89.6,69.8,93.7,69.8z"></path>	<path class="st9" d="M108.9,63.7c0,3.4,0.1,4.8,0.5,5.2c0.4,0.4,1,0.5,2.7,0.5c1.2,0,2.2,0,2.8-0.7c0.3-0.4,0.5-0.9,0.6-1.4  c0-0.2,0.1-0.3,0.2-0.3c0.1,0,0.1,0.1,0.1,0.3c0,0.3-0.2,1.6-0.3,2.3c-0.2,0.5-0.2,0.6-1.4,0.6c-1.6,0-2.8,0-3.8-0.1  c-1,0-1.7-0.1-2.3-0.1c-0.1,0-0.5,0-0.9,0c-0.5,0-1,0-1.3,0c-0.3,0-0.4,0-0.4-0.2c0-0.1,0-0.1,0.2-0.1c0.2,0,0.5,0,0.7-0.1  c0.5-0.1,0.6-0.6,0.7-1.3c0.1-1,0.1-2.8,0.1-5v-4c0-3.6,0-4.2,0-4.9c0-0.8-0.2-1.1-1-1.3c-0.2,0-0.6-0.1-0.8-0.1  c-0.1,0-0.2,0-0.2-0.1c0-0.1,0.1-0.2,0.4-0.2c1,0,2.5,0.1,2.6,0.1s1.8-0.1,2.5-0.1c0.3,0,0.4,0,0.4,0.2c0,0.1-0.1,0.1-0.2,0.1  c-0.2,0-0.5,0-0.8,0.1c-0.7,0.1-0.8,0.5-0.9,1.3c0,0.7,0,1.4,0,4.9V63.7z"></path>	<path class="st9" d="M122.4,63.7c0,3.4,0.1,4.8,0.5,5.2c0.4,0.4,1,0.5,2.7,0.5c1.2,0,2.2,0,2.8-0.7c0.3-0.4,0.5-0.9,0.6-1.4  c0-0.2,0.1-0.3,0.2-0.3c0.1,0,0.1,0.1,0.1,0.3c0,0.3-0.2,1.6-0.3,2.3c-0.2,0.5-0.2,0.6-1.4,0.6c-1.6,0-2.8,0-3.8-0.1  c-1,0-1.7-0.1-2.3-0.1c-0.1,0-0.5,0-0.9,0c-0.5,0-1,0-1.3,0c-0.3,0-0.4,0-0.4-0.2c0-0.1,0-0.1,0.2-0.1c0.2,0,0.5,0,0.7-0.1  c0.5-0.1,0.6-0.6,0.7-1.3c0.1-1,0.1-2.8,0.1-5v-4c0-3.6,0-4.2,0-4.9c0-0.8-0.2-1.1-1-1.3c-0.2,0-0.6-0.1-0.8-0.1  c-0.1,0-0.2,0-0.2-0.1c0-0.1,0.1-0.2,0.4-0.2c1,0,2.5,0.1,2.6,0.1c0.1,0,1.8-0.1,2.5-0.1c0.3,0,0.4,0,0.4,0.2  c0,0.1-0.1,0.1-0.2,0.1c-0.2,0-0.5,0-0.8,0.1c-0.7,0.1-0.8,0.5-0.9,1.3c0,0.7,0,1.4,0,4.9V63.7z"></path>	<path class="st9" d="M134,59.7c0-3.6,0-4.2,0-4.9c0-0.8-0.2-1.1-1-1.3c-0.2,0-0.6-0.1-0.8-0.1c-0.1,0-0.2,0-0.2-0.1  c0-0.1,0.1-0.2,0.4-0.2c0.5,0,1.1,0,1.6,0l0.9,0c0.2,0,4.7,0,5.2,0c0.4,0,0.8-0.1,1-0.1c0.1,0,0.2-0.1,0.3-0.1  c0.1,0,0.1,0.1,0.1,0.2c0,0.2-0.1,0.4-0.2,1.1c0,0.2-0.1,1.2-0.1,1.5c0,0.1-0.1,0.3-0.2,0.3c-0.1,0-0.2-0.1-0.2-0.3  c0-0.2,0-0.5-0.1-0.8c-0.2-0.4-0.4-0.6-1.6-0.8c-0.4,0-2.9-0.1-3.1-0.1c-0.1,0-0.1,0.1-0.1,0.2v6.3c0,0.2,0,0.2,0.1,0.2  c0.3,0,3.1,0,3.6,0c0.5,0,0.9-0.1,1.1-0.3c0.2-0.2,0.3-0.3,0.3-0.3c0.1,0,0.1,0,0.1,0.2c0,0.1-0.1,0.5-0.2,1.3  c0,0.5-0.1,1.3-0.1,1.5c0,0.2,0,0.4-0.2,0.4c-0.1,0-0.2-0.1-0.2-0.2c0-0.2,0-0.5-0.1-0.8c-0.1-0.3-0.3-0.7-1.2-0.8  c-0.6-0.1-2.9-0.1-3.3-0.1c-0.1,0-0.2,0.1-0.2,0.2v2c0,0.8,0,3.4,0,3.9c0.1,1.6,0.4,1.9,2.6,1.9c0.6,0,1.6,0,2.2-0.3  c0.6-0.3,0.9-0.7,1-1.6c0-0.3,0.1-0.3,0.2-0.3c0.1,0,0.1,0.2,0.1,0.3c0,0.2-0.2,1.7-0.3,2.2c-0.2,0.6-0.3,0.6-1.2,0.6  c-1.7,0-3,0-3.9-0.1c-0.9,0-1.4-0.1-1.8-0.1c0,0-0.4,0-0.9,0c-0.5,0-1,0-1.3,0c-0.3,0-0.4,0-0.4-0.2c0-0.1,0-0.1,0.2-0.1  c0.2,0,0.5,0,0.7-0.1c0.5-0.1,0.6-0.6,0.7-1.3c0.1-1,0.1-2.8,0.1-5V59.7z"></path>	<path class="st9" d="M158.8,64.5c0-1.8-0.1-2.1-1-2.4c-0.2,0-0.6-0.1-0.8-0.1c-0.1,0-0.2,0-0.2-0.1c0-0.1,0.1-0.2,0.4-0.2  c1,0,2.5,0.1,2.6,0.1c0.1,0,1.6-0.1,2.2-0.1c0.3,0,0.4,0,0.4,0.2c0,0.1-0.1,0.1-0.2,0.1c-0.2,0-0.3,0-0.6,0.1  c-0.6,0.1-0.8,0.5-0.8,1.3c0,0.7,0,1.4,0,2.4v2.6c0,1,0,1.1-0.3,1.2c-1.5,0.8-3.5,1-4.8,1c-1.7,0-5-0.2-7.5-2.4  c-1.4-1.2-2.7-3.7-2.7-6.5c0-3.7,1.8-6.2,3.8-7.5c2.1-1.3,4.3-1.4,6.1-1.4c1.4,0,3.1,0.3,3.5,0.4c0.5,0.1,1.3,0.2,1.8,0.2  c0.2,0,0.3,0.1,0.3,0.2c0,0.3-0.2,1-0.2,3.2c0,0.4,0,0.5-0.2,0.5c-0.1,0-0.1-0.1-0.2-0.3c0-0.3-0.1-1-0.5-1.5  c-0.6-0.9-2.4-1.8-5.4-1.8c-1.4,0-3.2,0.1-4.9,1.5c-1.3,1-2.3,3.1-2.3,5.8c0,3.2,1.6,5.5,2.4,6.3c1.8,1.8,3.9,2.4,6,2.4  c0.8,0,2-0.1,2.6-0.5c0.3-0.2,0.5-0.4,0.5-0.8V64.5z"></path>	<path class="st9" d="M167.6,59.7c0-3.6,0-4.2,0-4.9c0-0.8-0.2-1.1-1-1.3c-0.2,0-0.6-0.1-0.8-0.1c-0.1,0-0.2,0-0.2-0.1  c0-0.1,0.1-0.2,0.4-0.2c0.5,0,1.1,0,1.6,0l0.9,0c0.2,0,4.7,0,5.2,0c0.4,0,0.8-0.1,1-0.1c0.1,0,0.2-0.1,0.3-0.1  c0.1,0,0.1,0.1,0.1,0.2c0,0.2-0.1,0.4-0.2,1.1c0,0.2-0.1,1.2-0.1,1.5c0,0.1-0.1,0.3-0.2,0.3c-0.1,0-0.2-0.1-0.2-0.3  c0-0.2,0-0.5-0.1-0.8c-0.2-0.4-0.4-0.6-1.6-0.8c-0.4,0-2.9-0.1-3.1-0.1c-0.1,0-0.1,0.1-0.1,0.2v6.3c0,0.2,0,0.2,0.1,0.2  c0.3,0,3.1,0,3.6,0c0.5,0,0.9-0.1,1.1-0.3c0.2-0.2,0.3-0.3,0.3-0.3c0.1,0,0.1,0,0.1,0.2c0,0.1-0.1,0.5-0.2,1.3  c0,0.5-0.1,1.3-0.1,1.5c0,0.2,0,0.4-0.2,0.4c-0.1,0-0.2-0.1-0.2-0.2c0-0.2,0-0.5-0.1-0.8c-0.1-0.3-0.3-0.7-1.2-0.8  c-0.6-0.1-2.9-0.1-3.3-0.1c-0.1,0-0.2,0.1-0.2,0.2v2c0,0.8,0,3.4,0,3.9c0.1,1.6,0.4,1.9,2.6,1.9c0.6,0,1.6,0,2.2-0.3  c0.6-0.3,0.9-0.7,1-1.6c0-0.3,0.1-0.3,0.2-0.3c0.1,0,0.1,0.2,0.1,0.3c0,0.2-0.2,1.7-0.3,2.2c-0.2,0.6-0.3,0.6-1.2,0.6  c-1.7,0-3,0-3.9-0.1c-0.9,0-1.4-0.1-1.8-0.1c0,0-0.4,0-0.9,0c-0.5,0-1,0-1.3,0c-0.3,0-0.4,0-0.4-0.2c0-0.1,0-0.1,0.2-0.1  c0.2,0,0.5,0,0.7-0.1c0.5-0.1,0.6-0.6,0.7-1.3c0.1-1,0.1-2.8,0.1-5V59.7z"></path></g></svg>